<svg xmlns="http://www.w3.org/2000/svg" viewBox="0 0 485.47 472.47">
    <defs>
        <style>.cls-1{fill:#ff5a00;}</style>
    </defs>
    <title>Inter_Expres</title>
    <g id="Capa_2" data-name="Capa 2">
        <g id="Capa_1-2" data-name="Capa 1">
            <path class="cls-1"
                  d="M331,369.17a6.56,6.56,0,0,0-8.86,2.73q-.58,1.1-1.18,2.18H294.71a217.66,217.66,0,0,0,7.39-24.73,6.56,6.56,0,0,0-12.77-3,199,199,0,0,1-8.72,27.75H230.23a511.36,511.36,0,0,0,5.86-72.15h32.84a6.56,6.56,0,1,0,0-13.12H236.09a503.29,503.29,0,0,0-7-78.71h48.8a196.44,196.44,0,0,1,8,21.58,6.56,6.56,0,0,0,12.55-3.82q-2.8-9.18-6.28-17.75h25c.66,1.09,1.33,2.17,2,3.28a6.56,6.56,0,1,0,11.36-6.57c-.86-1.48-1.74-2.94-2.64-4.4a6.55,6.55,0,0,0-2.73-4.27A177.36,177.36,0,0,0,136.23,123a6.56,6.56,0,0,0,3,12.77q6.38-1.51,12.9-2.49c-10.7,14.12-18.92,37-24.59,63.69H73.69a6.52,6.52,0,0,0-3,0H45.92q2.44-3.25,5-6.39a6.56,6.56,0,1,0-10.09-8.39,175.79,175.79,0,0,0-11.79,15.94,6.55,6.55,0,0,0-2.74,4.33A177.12,177.12,0,1,0,333.77,378,6.56,6.56,0,0,0,331,369.17Zm-56.22,18A154.8,154.8,0,0,1,246.47,428c-13,13.12-27.44,22.28-42.74,27.19,10.64-15.31,18.76-39.58,24.21-68ZM226.62,197c-5.41-25.53-13.07-47.26-22.88-61.38,27.11,8.7,51.12,30.45,67.81,61.38Zm33.63-43a165,165,0,0,1,48,43h-22c-9.38-19-21.29-35.22-35-47.87Q255.84,151.41,260.24,154ZM149.69,166.53c8.13-22,18.38-35.15,27.41-35.15,10.58,0,22.1,16.94,30.84,45.32,2,6.35,3.73,13.13,5.32,20.27H141A237.35,237.35,0,0,1,149.69,166.53ZM125.2,269.12a6.55,6.55,0,0,0,6.94-6.16,450.08,450.08,0,0,1,6.17-52.87h77.59A478,478,0,0,1,223,288.81H190.22a6.56,6.56,0,1,0,0,13.12H223A488.42,488.42,0,0,1,217,374.08H190.22a6.56,6.56,0,1,0,0,13.12h24.43c-1.93,9.57-4.17,18.57-6.71,26.83-8.73,28.38-20.26,45.32-30.84,45.32-8.85,0-18.58-12.1-26.67-33.2a6.56,6.56,0,1,0-12.25,4.7c4,10.42,8.19,18.33,12.37,24.32-29.47-9.44-54.76-34.25-71.23-68a6.56,6.56,0,0,0-.6-13.09H73.55a213.19,213.19,0,0,1-14.41-72.15h13a6.56,6.56,0,1,0,0-13.12h-13c.8-27.92,6.69-54.91,17.17-78.71H125a467.57,467.57,0,0,0-6,52.08A6.56,6.56,0,0,0,125.2,269.12ZM13.26,301.93H46a227.55,227.55,0,0,0,13.46,72.15H33.28A162.86,162.86,0,0,1,13.26,301.93Zm48.8-91.83A226.1,226.1,0,0,0,46,288.81H13.26A164.36,164.36,0,0,1,37,210.1ZM41.31,387.2H64.83a181.17,181.17,0,0,0,18.85,32.63,151.76,151.76,0,0,0,19.24,21.76A165.15,165.15,0,0,1,41.31,387.2ZM251,441.82q2.43-2.24,4.81-4.64c13.63-13.79,25-30.72,33.58-50H313A163.72,163.72,0,0,1,251,441.82Z"/>
            <path class="cls-1"
                  d="M68.34,182.64a6.56,6.56,0,0,0,7.69,0c2-1.45,48.6-36.06,48.6-77.45a52.47,52.47,0,1,0-104.95,0C19.68,147.39,66.35,181.22,68.34,182.64ZM72.15,65.79a39.4,39.4,0,0,1,39.36,39.36c0,28.48-28.82,55-39.4,63.81-10.59-8.63-39.31-34.74-39.31-63.81A39.4,39.4,0,0,1,72.15,65.79Z"/>
            <path class="cls-1"
                  d="M98.39,105.15a6.56,6.56,0,0,0-13.12,0A13.12,13.12,0,1,1,72.15,92a6.56,6.56,0,1,0,0-13.12,26.24,26.24,0,1,0,26.24,26.24Z"/>
            <path class="cls-1"
                  d="M334.53,229.77a52.53,52.53,0,0,0-52.47,52.47c0,42.25,46.68,76.07,48.66,77.49a6.56,6.56,0,0,0,7.69,0c2-1.45,48.6-36.06,48.6-77.45A52.53,52.53,0,0,0,334.53,229.77Zm0,116.28c-10.59-8.63-39.31-34.74-39.31-63.81a39.36,39.36,0,0,1,78.71,0C373.88,310.73,345.07,337.27,334.48,346.06Z"/>
            <path class="cls-1"
                  d="M354.2,275.69a6.56,6.56,0,0,0-6.56,6.56,13.12,13.12,0,1,1-13.12-13.12,6.56,6.56,0,1,0,0-13.12,26.24,26.24,0,1,0,26.24,26.24A6.56,6.56,0,0,0,354.2,275.69Z"/>
            <path class="cls-1"
                  d="M78.71,334.72c0,42.25,46.68,76.07,48.66,77.49a6.56,6.56,0,0,0,7.69,0c2-1.45,48.6-36.06,48.6-77.45a52.47,52.47,0,1,0-104.95,0Zm52.47-39.36a39.4,39.4,0,0,1,39.36,39.36c0,28.48-28.82,55-39.4,63.81-10.59-8.63-39.31-34.74-39.31-63.81A39.4,39.4,0,0,1,131.19,295.37Z"/>
            <path class="cls-1"
                  d="M131.19,361a26.27,26.27,0,0,0,26.24-26.24,6.56,6.56,0,0,0-13.12,0,13.12,13.12,0,1,1-13.12-13.12,6.56,6.56,0,1,0,0-13.12,26.24,26.24,0,1,0,0,52.47Z"/>
            <path class="cls-1"
                  d="M481,4.32A15.08,15.08,0,0,0,470,0c-4.52,0-9.24,1.42-14.32,4.23a76.24,76.24,0,0,0-13.45,9.42H442c-.77.67-3.17,3-7.3,7.11s-7.59,7.59-10.38,10.57L340.83,7.49a5,5,0,0,0-5.09,1.34L321.8,22.67a5,5,0,0,0-1.44,4.52,4.9,4.9,0,0,0,2.79,3.94l66.29,35L355,100.59l-27.77,1a5,5,0,0,0-3.55,1.54L310,116.92a5.18,5.18,0,0,0-1.63,4.71,4.93,4.93,0,0,0,3.36,3.94l33.91,14.12,14.12,33.92a5.26,5.26,0,0,0,3.94,3.27h1a5.07,5.07,0,0,0,3.75-1.54l13.74-13.74a5.27,5.27,0,0,0,1.63-3.55l1-27.77,34.4-34.4,35.07,66.29a4.91,4.91,0,0,0,3.94,2.79,5.1,5.1,0,0,0,4.52-1.63l13.74-13.74a4.87,4.87,0,0,0,1.44-5.09L454,61,471.3,43.71a55.79,55.79,0,0,0,9.61-13.07,43.12,43.12,0,0,0,3.75-9C486.31,15.76,485.6,8.86,481,4.32Zm-17.2,31.9L444.4,55.72A4.75,4.75,0,0,0,443,60.82l23.63,83.49-6.53,6.44-35-66.1a4.79,4.79,0,0,0-3.75-2.79,4.84,4.84,0,0,0-4.71,1.44L375.7,124.23a6.49,6.49,0,0,0-1.63,3.46l-1,27.77-6.63,6.73-12-28.54a4.52,4.52,0,0,0-2.79-3l-28.53-11.82,6.72-6.63,27.67-1.06a6.42,6.42,0,0,0,3.55-1.54L402,68.69a5.31,5.31,0,0,0-1.34-8.45l-66.1-35.07L341,18.73l83.49,23.63a4.74,4.74,0,0,0,5.09-1.44l8.26-8.26,7.59-7.49,3.27-3.27.39-.19c8.07-6.92,15.95-11,20.85-11,1.73,0,2.88.38,3.36,1.15C478.79,17.2,467.21,32.8,463.81,36.22Z"/>
        </g>
    </g>
</svg>