<?xml version="1.0" encoding="utf-8"?>
<!-- Generator: Adobe Illustrator 25.2.3, SVG Export Plug-In . SVG Version: 6.00 Build 0)  -->
<svg version="1.1" id="Capa_1" xmlns="http://www.w3.org/2000/svg" xmlns:xlink="http://www.w3.org/1999/xlink" x="0px" y="0px"
	 viewBox="0 0 37.1 33.1" style="enable-background:new 0 0 37.1 33.1;" xml:space="preserve">
<style type="text/css">
	.st0{fill:#00C800;}
	.st1{fill:#FE5000;}
</style>
<path class="st0" d="M30.9,21.5c0,0.9-0.7,1.6-1.5,1.6c-2-0.1-2-3.1,0-3.2C30.2,20,30.9,20.7,30.9,21.5z M37,21.6
	c0,3.3-1.9,5.5-3.8,7.5c-0.9,1-1.7,2-2.4,3.1c-0.3,0.5-0.8,0.7-1.3,0.7h-0.4c-0.5,0-1-0.3-1.3-0.7c-0.7-1.1-1.6-2.1-2.4-3.1
	c-1.8-2.1-3.7-4.2-3.7-7.5C22.1,11,36.6,11,37,21.6z M34,21.6c-0.3-6.4-8.9-6.4-9.2,0c0,2.1,1.3,3.6,2.9,5.4c0.6,0.6,1.1,1.3,1.7,2
	c0.5-0.7,1.1-1.3,1.7-2C32.7,25.1,34,23.7,34,21.6z"/>
<g>
	<path class="st1" d="M23,28.7H3.4c-1.1,0-2-0.9-2-2V3.5c0-1.1,0.9-2,2-2h25.8c1.1,0,2,0.9,2,2v8.6c0,0.8,1.4,0.9,1.4,0V3.5
		c0-1.9-1.5-3.4-3.4-3.4H3.4C1.6,0.1,0,1.6,0,3.5v23.1C0,28.5,1.6,30,3.4,30h19.6C23.9,30,24,28.7,23,28.7z"/>
	<path class="st1" d="M0,6.2c0-0.4,0.3-0.7,0.7-0.7H32c0.4,0,0.7,0.3,0.7,0.7S32.4,6.9,32,6.9H0.7C0.4,6.9,0,6.6,0,6.2z"/>
	<path class="st1" d="M8.6,21.9c-0.3,0-0.6-0.2-0.7-0.5L5.2,10.5c-0.1-0.4,0.1-0.7,0.5-0.8c0.4-0.1,0.7,0.1,0.8,0.5l0.9,3.6h13.4
		c0.2,0,0.4,0.1,0.5,0.2c0.1,0.2,0.2,0.4,0.1,0.6l-1.4,6.8c-0.1,0.3-0.3,0.5-0.7,0.5L8.6,21.9L8.6,21.9z M20,15.1H7.8l1.4,5.4h9.8
		L20,15.1z"/>
	<path class="st1" d="M14.7,24.6c0-0.8,0.6-1.4,1.4-1.4c0.7,0,1.4,0.6,1.4,1.4c0,0.8-0.6,1.4-1.4,1.4C15.3,25.9,14.7,25.3,14.7,24.6
		z"/>
	<path class="st1" d="M9.3,24.6c0-0.8,0.6-1.4,1.4-1.4s1.4,0.6,1.4,1.4c0,0.8-0.6,1.4-1.4,1.4S9.3,25.3,9.3,24.6z"/>
	<path class="st1" d="M25.3,3.6c0-0.5,0.4-0.9,0.9-0.9c0.5,0,0.9,0.4,0.9,0.9s-0.4,0.9-0.9,0.9C25.8,4.5,25.3,4.1,25.3,3.6z"/>
	<path class="st1" d="M28,3.6c0-0.5,0.4-0.9,0.9-0.9c0.5,0,0.9,0.4,0.9,0.9s-0.4,0.9-0.9,0.9C28.4,4.5,28,4.1,28,3.6z"/>
</g>
</svg>
