<svg xmlns="http://www.w3.org/2000/svg" viewBox="0 0 191.24 157.02">
    <defs>
        <style>.cls-1{fill:none;stroke:#eb5c1c;stroke-miterlimit:10;stroke-width:5px;}</style>
    </defs>
    <title>mallorcaMaritimo</title>
    <g id="Capa_2" data-name="Capa 2">
        <g id="Layer_1" data-name="Layer 1">
            <path class="cls-1"
                  d="M137.28,2.51a26.08,26.08,0,0,0-13.63,5.62A18.28,18.28,0,0,1,120,10.77c-2.46,1.13-5.33.69-8,1.05a26.54,26.54,0,0,0-5.14,1.41l-3,1c-5.14,1.79-10.31,3.6-15,6.34-2.67,1.56-5.15,3.4-7.7,5.13-9.77,6.66-20.78,12.09-28,21.43a11,11,0,0,1-1.92,2.13c-.68.52-1.49.84-2.21,1.3-2.56,1.62-3.79,4.62-5.14,7.33s-3.3,5.54-6.28,6.09c-5.35,1-10.63,3.63-13.71,8.1a46.32,46.32,0,0,1-3.14,4.61c-1.79,2-4.25,3.28-6.55,4.69a50.92,50.92,0,0,0-7.09,5.24,13,13,0,0,0-3.94,5.08,6.67,6.67,0,0,0-.29,4.8c.54,1.31,1.26,1.27,3.13,3.1,2.91,2.85,2.75,4.5,4.61,5,1.36.4,2-.34,4.18-.72a13.93,13.93,0,0,1,7.06.72c-1.86,4.73-.74,9.68,2.45,12.11.19.14,3.72,2.74,7.64,1.3.49-.18,3.17-1.16,4-3.6,1.05-3-1.72-4.82-.86-7.21s4.34-1.73,8.79-4.18c6.65-3.66,7-9.76,10.38-9.51,2.6.19,5.13,3,8.07,6.49,1.67,2,1.91,2.77,3.46,3.75,2.47,1.56,4.56,1.23,5.33,2.88a4.74,4.74,0,0,1,0,2.93,11.8,11.8,0,0,1-1.44,3.7c-1.91,3.57-2.76,3.67-2.74,4.9,0,1.7,1.66,1.93,2.88,4.18,1.69,3.09-.34,4.55.86,7.64,1.75,4.48,7.9,6.2,9.95,6.78a20.22,20.22,0,0,0,4.61.72c4.77.19,7-1.4,10.85-2.28,1.46-.33,10-2.64,14.87,1.69,1.31,1.16,3.06,3.7,6.32,9.09,3.59,5.94,4.2,7.86,6.31,8.36,2.45.59,4.87-1.21,7.63-3.25A40,40,0,0,0,138.3,144c4.49-4.86,9.77-8.94,14.43-13.65s8.78-10.28,10.15-16.76c.61-2.91.65-5.91,1.12-8.85a31.13,31.13,0,0,1,7.48-15.78c2.11-2.36,4.59-4.41,6.4-7s2.87-6,1.7-9c-.75-1.88,1-4.13,2.59-5.37s3.63-2.1,4.6-3.88c1.55-2.83-.31-6.56,1-9.52.43-1,1.2-1.93.91-2.94-.39-1.37-2.36-1.63-3.06-2.87-.35-.62-.33-1.43-.78-2-.88-1.11-2.71-.45-4-1-1.07-.46-1.72-1.72-2.87-1.92-.83-.14-1.66.33-2.49.21a4.29,4.29,0,0,1-1.61-.8,10,10,0,0,0-9.31-.71,3.62,3.62,0,0,0-1.78,1.43,6.69,6.69,0,0,0-.67,1.66c-.35,1.84-4,5.26-7.56,6.54-6.52,2.35-13.21-2.36-17.49-5.38-3-2.14-6.45-4.62-7.88-9.23a14.82,14.82,0,0,1-.41-6.81c1.6-1.1,3.53-2.16,5.4-1.61a3.14,3.14,0,0,0,2,.24,2.52,2.52,0,0,0,1-.92l2.58-3.41c.83-1.09,1.67-2.6.89-3.72a2.3,2.3,0,0,0-1.12-.79c-2.3-.84-4.73.64-6.76,2s-4.61,2.7-6.8,1.6-2.61-3.92-1.7-6,2.87-3.59,4.86-4.75a36.63,36.63,0,0,1,4.35-2.14,17.22,17.22,0,0,0,3.47-1.69A4.54,4.54,0,0,0,139,6C139.07,4.68,138.56,2.37,137.28,2.51Z"/>
        </g>
    </g>
</svg>