<?xml version="1.0" encoding="utf-8"?>
<!-- Generator: Adobe Illustrator 25.2.3, SVG Export Plug-In . SVG Version: 6.00 Build 0)  -->
<svg version="1.1" id="Capa_1" xmlns="http://www.w3.org/2000/svg" xmlns:xlink="http://www.w3.org/1999/xlink" x="0px" y="0px"
	 viewBox="0 0 37.1 33.1" style="enable-background:new 0 0 37.1 33.1;" xml:space="preserve">
<style type="text/css">
	.st0{fill:#00C800;}
	.st1{fill:#FE5000;}
</style>
<path class="st0" d="M30.9,21.5c0,0.9-0.7,1.6-1.5,1.6c-2-0.1-2-3.1,0-3.2C30.2,20,30.9,20.7,30.9,21.5z M37,21.6
	c0,3.3-1.9,5.5-3.8,7.5c-0.9,1-1.7,2-2.4,3.1c-0.3,0.5-0.8,0.7-1.3,0.7h-0.4c-0.5,0-1-0.3-1.3-0.7c-0.7-1.1-1.6-2.1-2.4-3.1
	c-1.8-2.1-3.7-4.2-3.7-7.5C22.1,11,36.6,11,37,21.6z M34,21.6c-0.3-6.4-8.9-6.4-9.2,0c0,2.1,1.3,3.6,2.9,5.4c0.6,0.6,1.1,1.3,1.7,2
	c0.5-0.7,1.1-1.3,1.7-2C32.7,25.1,34,23.7,34,21.6z"/>
<g>
	<path class="st1" d="M20.4,24.2l-2.1,1.1V13.8l3.5-1.9v3c0,0.2,0.1,0.4,0.3,0.5c0.1,0.1,0.2,0.1,0.3,0.1c0.1,0,0.2,0,0.3-0.1
		l2.5-1.4c0.2-0.1,0.3-0.3,0.3-0.5V9.9L28.9,8v3.1c0,0.3,0.3,0.6,0.6,0.6s0.6-0.3,0.6-0.6V7c0-0.2-0.1-0.4-0.3-0.5L18,0
		C17.8,0,17.6,0,17.5,0L13,2.5c-0.1,0-0.2,0.1-0.3,0.1l-7,3.9C5.6,6.6,5.4,6.8,5.4,7v7.8c-1.2,0.4-2.3,1-3.2,1.9c-2.4,2.4-3,6-1.5,9
		C0.9,26,1.2,26.1,1.5,26c0.3-0.1,0.4-0.5,0.3-0.8c-1.2-2.6-0.7-5.6,1.3-7.6c1.3-1.3,2.9-1.9,4.7-1.9c1.8,0,3.4,0.7,4.7,1.9
		c1.3,1.3,1.9,2.9,1.9,4.7c0,1.8-0.7,3.4-1.9,4.7c-2,2-5.1,2.5-7.6,1.3c-0.3-0.1-0.6,0-0.8,0.3c-0.1,0.3,0,0.6,0.3,0.8
		c1.1,0.5,2.3,0.8,3.4,0.8c2,0,4-0.8,5.5-2.3c0.7-0.7,1.2-1.5,1.6-2.3l2.5,1.4c0.1,0,0.2,0.1,0.3,0.1s0.2,0,0.3-0.1l3.1-1.7
		C21.7,24.8,21.3,23.7,20.4,24.2z M24.3,13.2L23,13.9v-2.7l1.3-0.7V13.2z M17.7,1.2L28.2,7l-3.3,1.8L14.4,3.1L17.7,1.2z M13.2,3.7
		l10.5,5.8l-1.3,0.7L11.9,4.4L13.2,3.7z M17.2,25.3l-1.8-1c0.2-0.7,0.3-1.4,0.3-2.1c0-2.1-0.8-4.1-2.3-5.5c-1.5-1.5-3.4-2.3-5.5-2.3
		c-0.4,0-0.8,0-1.2,0.1V8l10.5,5.8V25.3z M17.7,12.8L7.2,7l3.4-1.9l10.5,5.8L17.7,12.8z"/>
	<path class="st1" d="M5.8,22.8c0.2,0,0.3-0.1,0.4-0.2c0.2-0.2,0.2-0.6,0-0.8l-0.4-0.4h3.5c0.8,0,1.5,0.7,1.5,1.5
		c0,0.8-0.7,1.5-1.5,1.5H7.2c-0.3,0-0.6,0.3-0.6,0.6s0.3,0.6,0.6,0.6h2.1c1.5,0,2.7-1.2,2.7-2.7c0-1.5-1.2-2.7-2.7-2.7H5.8l0.4-0.4
		c0.2-0.2,0.2-0.6,0-0.8c-0.2-0.2-0.6-0.2-0.8,0L4,20.4c-0.2,0.2-0.2,0.6,0,0.8l1.4,1.4C5.5,22.8,5.7,22.8,5.8,22.8z"/>
	<path class="st1" d="M2.7,28c-0.2,0-0.3-0.1-0.4-0.2l0,0C2,27.5,2,27.1,2.3,26.9s0.6-0.2,0.8,0.1c0.2,0.2,0.2,0.6-0.1,0.8
		C2.9,27.9,2.8,28,2.7,28z"/>
</g>
</svg>
