<svg xmlns="http://www.w3.org/2000/svg" viewBox="0 0 125.74 99.88">
    <defs>
        <style>
            .cls-1{fill:#eb5c1c;}.cls-2{fill:none;stroke:#eb5d1d;stroke-linecap:round;stroke-linejoin:round;stroke-width:1.44px;}
        </style>
    </defs>
    <title>canarias_maritimo</title>
    <g id="Capa_2" data-name="Capa 2">
        <g id="Layer_1" data-name="Layer 1">
            <path class="cls-1" d="M53.58,7.82l-.45.61.51-.51Z"/>
            <path class="cls-1" d="M55.16,22.51l.25-.09,0-.08A1.58,1.58,0,0,1,55.16,22.51Z"/>
            <path class="cls-1" d="M55.94,7.38l-.13-.46,0,.06Z"/>
            <path class="cls-1"
                  d="M118.53,30.37a.5.5,0,0,0-.7-.08,12.9,12.9,0,0,1-5.34,2.1,18.58,18.58,0,0,0,5.34-2.78.5.5,0,1,0-.63-.78c-2,1.66-5.28,2.78-7.84,3.47a39.07,39.07,0,0,0,7.38-4.52.5.5,0,1,0-.64-.77,39.71,39.71,0,0,1-7.63,4.6c2-1.58,4.78-3.77,6.89-5.59a.5.5,0,1,0-.65-.76c-2.23,1.92-5.2,4.28-7.23,5.86a68.9,68.9,0,0,1,6.28-6.74.5.5,0,1,0-.66-.75,71.7,71.7,0,0,0-6.64,7.15c1.35-2.48,3.46-6,5.57-7.91a.5.5,0,1,0-.68-.74c-2.26,2.07-4.45,5.71-5.82,8.24,1-2.92,2.68-6.95,4.71-8.87a.5.5,0,0,0-.69-.73c-2.64,2.5-4.62,8-5.52,10.92l-.18,0c.44-2.48,1.61-8,3.78-10.64a.5.5,0,1,0-.78-.63c-2.05,2.54-3.23,7.21-3.79,10,.12-2.55.57-7,2.15-9.62a.5.5,0,1,0-.86-.51c-1.39,2.32-2,5.79-2.19,8.43-.17-2.39-.15-5.56.83-7.87a.5.5,0,1,0-.92-.39,16.17,16.17,0,0,0-1,6.16,13.41,13.41,0,0,1,.1-5.52.5.5,0,0,0-1-.27,13.9,13.9,0,0,0-.21,5.46,11.39,11.39,0,0,1-.44-4.71.5.5,0,0,0-1-.15,13.87,13.87,0,0,0,1,6.77,11.54,11.54,0,0,1-1.68-5.88.5.5,0,0,0-.48-.52.49.49,0,0,0-.52.48c-.17,4.63,3.39,9,4.69,10.44a11.7,11.7,0,0,0-1.48,1.57,38,38,0,0,0-3.06,3.28c-.06-1.44-.48-3.05-.5-3.82,0-1.49-.42-4.89-2.45-4.56S92.58,33,92.74,34.46a14.43,14.43,0,0,0,1,4.74c-2.35,1-4.7,3.9-5.85,5.52-1.29,1.83-6,5.79-6.73,9-3.24,1-5.76,6.4-6.8,9.16-.54,1.45-2.14,4-3.45,6.63h0l-2.35,3.71h0c.69-2.49,1-5,1.31-6.31.45-2.29,1.41-6.55.66-9.55,3-1.63,5-7.53,5.86-9.64.75-1.8,2.23-5.12,2.15-7.71,2.85-.66,5.86-4.61,7.07-6s3.63-4,3.72-6.14c1.6-.51,3.29-2.83,4-3.66s2.34-2.7,2.22-4.11a.48.48,0,0,0,.19,0h.06l.26,0a.49.49,0,0,0,.3.1l.15,0,.8-.28c2.78-.49,8.67-1.85,11.39-4.8a.5.5,0,1,0-.74-.68A12.91,12.91,0,0,1,103,17.31a18.61,18.61,0,0,0,4.84-3.59.5.5,0,0,0-.75-.67c-1.75,2-4.77,3.58-7.19,4.67a38.93,38.93,0,0,0,6.57-5.63.5.5,0,1,0-.75-.65,39.74,39.74,0,0,1-6.81,5.76c1.74-1.88,4.12-4.48,5.91-6.61a.5.5,0,1,0-.76-.64c-1.9,2.25-4.46,5-6.21,6.93A69,69,0,0,1,103,9.21a.5.5,0,0,0-.77-.63,71.87,71.87,0,0,0-5.42,8.11C97.72,14,99.25,10.24,101,8a.5.5,0,0,0-.78-.62c-1.9,2.4-3.49,6.35-4.44,9.07.54-3,1.55-7.28,3.25-9.51a.5.5,0,1,0-.79-.61c-2.41,3.14-3.48,9.73-3.82,12.39h-.08c0-2,.15-8.49,2.05-11.82a.5.5,0,1,0-.87-.5c-1.62,2.84-2,7.63-2.15,10.52-.28-2.54-.54-7,.6-9.84A.5.5,0,1,0,93,6.69c-1,2.5-1,6-.82,8.66-.55-2.33-1-5.46-.42-7.89a.5.5,0,1,0-1-.24,16.18,16.18,0,0,0,0,6.24A13.42,13.42,0,0,1,90,8a.5.5,0,0,0-1-.11,13.87,13.87,0,0,0,.66,5.41,11.36,11.36,0,0,1-1.18-4.57.5.5,0,0,0-.5-.49h0a.5.5,0,0,0-.5.51,13.87,13.87,0,0,0,2.08,6.54A11.53,11.53,0,0,1,87,9.71a.49.49,0,0,0-.56-.44.5.5,0,0,0-.44.56c.57,4.65,4.86,8.43,6.33,9.6a10.66,10.66,0,0,0-1.87,2.09c-.44.63-1.68,1.75-2.52,2.91A38,38,0,0,0,87.2,20c0-.26-.06-.57-.11-.91a7.31,7.31,0,0,0,1.08-.94.5.5,0,1,0-.74-.68,5.82,5.82,0,0,1-.57.54l-.08-.29a9.46,9.46,0,0,0,.69-.69.5.5,0,1,0-.75-.67c-.11.12-.23.23-.34.35a3,3,0,0,0-.43-.63l.38-.41a.5.5,0,0,0-.75-.66c-.16.19-.33.37-.51.56a1.5,1.5,0,0,0-.57,0,1.82,1.82,0,0,0-1.32,1.74c-.87.73-1.78,1.42-2.61,2,1.38-1.5,3.08-3.37,4.4-4.94a.5.5,0,1,0-.76-.64c-1.4,1.66-3.22,3.66-4.64,5.2a53.4,53.4,0,0,1,3.87-5.69.5.5,0,0,0-.77-.63,55.53,55.53,0,0,0-4.08,6,25.6,25.6,0,0,1,3.23-6.4.5.5,0,1,0-.78-.62,26.27,26.27,0,0,0-3.37,6.62c.48-2.39,1.27-5.28,2.5-6.88a.5.5,0,1,0-.79-.61c-1.81,2.36-2.71,7-3.09,9.56h0c0-2.19.32-6.61,1.69-9a.5.5,0,1,0-.87-.5c-1.17,2-1.59,5.27-1.75,7.68-.17-2.13-.2-5.05.6-7a.5.5,0,0,0-.93-.37,16.1,16.1,0,0,0-.75,6.22,13.55,13.55,0,0,1-.13-5.52.5.5,0,0,0-1-.24A12.14,12.14,0,0,0,73,15.68a9.89,9.89,0,0,1-.33-3.46.5.5,0,1,0-1-.11,10.42,10.42,0,0,0,.24,3.33,8.3,8.3,0,0,1-.51-2.63.5.5,0,0,0-.5-.49h0a.5.5,0,0,0-.49.51,10.67,10.67,0,0,0,1.2,4.48,8.64,8.64,0,0,1-1.48-3.67.5.5,0,0,0-1,.12c.48,3.93,4.11,7.11,5.33,8.08a13.16,13.16,0,0,0-.87,1.11c-.44.63-1.68,1.75-2.52,2.91a38.13,38.13,0,0,0-.75-4.43c-.12-1.49-.7-4.86-2.71-4.41s-1.3,3.83-1.06,5.29c.18,1.07.48,3.9,1.6,5.15a14.67,14.67,0,0,0-3.3,3.63c-.64,1-2.48,2.69-3.71,4.48-.07-2.37-1.14-5.32-1.28-6.65-.16-1.55-.67-4.44-2-5.84,1.39-.94,2.37-3.6,2.81-4.59s1.41-3,1.1-4.34l.13,0H62l.26,0a.5.5,0,0,0,.3.1l.15,0,.8-.28c2.78-.49,8.67-1.85,11.4-4.8a.5.5,0,1,0-.74-.68,12.9,12.9,0,0,1-5,2.93A18.63,18.63,0,0,0,74,7.79a.5.5,0,0,0-.75-.67c-1.75,2-4.77,3.58-7.19,4.66a39,39,0,0,0,6.57-5.63.5.5,0,0,0-.75-.66,39.67,39.67,0,0,1-6.81,5.76C66.86,9.38,69.24,6.78,71,4.65A.5.5,0,1,0,70.27,4c-1.9,2.25-4.46,5-6.21,6.93A68.91,68.91,0,0,1,69.2,3.28a.5.5,0,0,0-.77-.63A71.15,71.15,0,0,0,63,10.75c.94-2.66,2.47-6.43,4.24-8.68a.5.5,0,0,0-.78-.62C64.56,3.85,63,7.8,62,10.52c.54-3,1.55-7.29,3.25-9.51A.5.5,0,1,0,64.47.4C62,3.62,60.95,10.44,60.63,13h-.06c0-1.72.09-8.58,2-12a.5.5,0,1,0-.87-.5C60.13,3.29,59.7,8.09,59.6,11c-.28-2.54-.54-7,.6-9.85a.5.5,0,0,0-.93-.37c-1,2.5-1,6-.83,8.67C57.9,7.1,57.42,4,58,1.54a.5.5,0,1,0-1-.24,11,11,0,0,0-.29,2.11.49.49,0,0,0-.34.31c0,.12-.1.25-.15.37a9.6,9.6,0,0,1,0-2,.5.5,0,0,0-1-.11c0,.23,0,.46,0,.7a.48.48,0,0,0-.13.2c-.08.27-.18.54-.3.81,0-.29-.05-.58-.06-.87a.53.53,0,0,0-.5-.49.46.46,0,0,0-.14,0l0-.09a.5.5,0,1,0-1-.29c-.14.46-.3.93-.48,1.4h0a.5.5,0,0,0-.44.56c0,.14.05.27.07.41A49.52,49.52,0,0,1,49.36,10c.81-2.43,1.9-5.79,2.65-8.46a.5.5,0,0,0-.35-.62.51.51,0,0,0-.62.35c-.79,2.83-2,6.43-2.79,8.87a68.7,68.7,0,0,1,1.51-9.08.5.5,0,0,0-1-.26,71.81,71.81,0,0,0-1.58,9.63C47,7.63,46.81,3.54,47.5.76a.5.5,0,1,0-1-.24c-.74,3-.55,7.22-.29,10.09-.77-3-1.61-7.27-1-10a.5.5,0,1,0-1-.23c-1,4.21,1.2,11.49,1.83,13.46h0a.45.45,0,0,0,0,0c0-.08-3.69-7.64-3.27-12.14a.5.5,0,0,0-1-.09c-.31,3.25,1.29,7.8,2.39,10.47C42.92,9.85,40.83,5.9,40.7,2.83a.49.49,0,0,0-.52-.48.5.5,0,0,0-.48.52c.12,2.7,1.57,5.91,2.84,8.23-1.46-1.89-3.2-4.55-3.65-7a.5.5,0,0,0-1,.18A16.19,16.19,0,0,0,40.47,10a13.41,13.41,0,0,1-3-4.66.5.5,0,0,0-1,.31,13.86,13.86,0,0,0,2.84,4.65,11.31,11.31,0,0,1-3-3.67.5.5,0,1,0-.91.42,13.86,13.86,0,0,0,4.58,5.08,11.53,11.53,0,0,1-4.65-4,.5.5,0,1,0-.85.52c2.81,4.61,9.66,6.12,10.29,6.25a10.4,10.4,0,0,0-1.31,2.62c-.25.73-1.14,2.14-1.63,3.49A38.2,38.2,0,0,0,40,17c-.52-1.4-2-4.49-3.8-3.51s-.22,4,.42,5.38c.47,1,1.54,3.69,3,4.55A13,13,0,0,0,39,29c.08,1.16-.32,3.64-.2,5.81-1.5-1.83-4.16-3.52-5.08-4.49a17.84,17.84,0,0,0-2.41-2.12c1.46-.86,2.49-3.66,2.94-4.68.6-1.35,2.12-4.46.28-5.39s-3.23,2.2-3.72,3.61c-.25.73-1.14,2.14-1.63,3.49a38.47,38.47,0,0,0-1.93-4.06,8,8,0,0,0-2.11-3.32l.08-.1a.49.49,0,0,0,.38-.23c0-.05.19-.32.42-.73,1.77-2.2,5.31-7.1,5.41-11.12a.5.5,0,0,0-.49-.51.51.51,0,0,0-.51.49,12.9,12.9,0,0,1-1.8,5.46,18.58,18.58,0,0,0,1.28-5.9.5.5,0,0,0-.49-.51.52.52,0,0,0-.51.5c0,2.63-1.23,5.83-2.34,8.24a39,39,0,0,0,1.24-8.57.5.5,0,0,0-.5-.5h0a.5.5,0,0,0-.5.5,39.65,39.65,0,0,1-1.33,8.82c.07-2.56.15-6.09.1-8.87A.48.48,0,0,0,25,4.31a.5.5,0,0,0-.49.51c.05,2.95,0,6.73-.11,9.3A69.11,69.11,0,0,1,23.27,5a.49.49,0,0,0-.52-.48.5.5,0,0,0-.48.52,72.16,72.16,0,0,0,1.26,9.67c-1-2.62-2.38-6.47-2.53-9.34a.5.5,0,0,0-1,0c.15,3.06,1.55,7.08,2.63,9.75C21,12.51,19,8.65,18.82,5.86a.5.5,0,0,0-1,.06c.26,4,3.84,9.7,5.31,11.89l-.05,0c-1.23-1.4-5.52-6.5-6.29-10.3a.5.5,0,1,0-1,.2c.64,3.2,3.49,7.1,5.31,9.34-1.88-1.72-5-4.91-6-7.81a.5.5,0,1,0-.94.33c.89,2.55,3.2,5.2,5.08,7.07-1.95-1.39-4.37-3.44-5.52-5.66a.5.5,0,1,0-.89.46,16.17,16.17,0,0,0,4.1,4.71,13.43,13.43,0,0,1-4.18-3.61.5.5,0,0,0-.82.57A13.85,13.85,0,0,0,16,16.79a11.35,11.35,0,0,1-3.91-2.67.5.5,0,1,0-.75.67,13.88,13.88,0,0,0,5.85,3.55,11.54,11.54,0,0,1-5.6-2.46.5.5,0,1,0-.67.74,9.88,9.88,0,0,0,2.44,1.58.5.5,0,0,0-.2.65,12.9,12.9,0,0,1,.94,5.68,18.53,18.53,0,0,0-1.6-5.82.5.5,0,0,0-.89.45c1.2,2.35,1.62,5.74,1.75,8.39a39.11,39.11,0,0,0-2.88-8.16.5.5,0,1,0-.88.47,39.7,39.7,0,0,1,2.91,8.43c-1.12-2.3-2.69-5.46-4-7.9a.5.5,0,1,0-.88.48c1.42,2.58,3.09,6,4.22,8.29A68.59,68.59,0,0,1,6.53,21.6a.5.5,0,0,0-.87.49,70.86,70.86,0,0,0,5.59,8C9.12,28.23,6.15,25.45,4.7,23a.5.5,0,1,0-.86.51C5.39,26.13,8.49,29,10.68,30.9,8,29.31,4.45,26.83,3,24.44a.5.5,0,1,0-.85.52C4,28,9,31.12,11.61,32.61a1.32,1.32,0,0,0-.07.18c-2.37-1-7.4-3.24-9.55-5.89a.5.5,0,1,0-.78.63c2.06,2.54,6.39,4.67,9,5.81-2.47-.65-6.72-2-9-4.12a.5.5,0,1,0-.68.73c2,1.84,5.25,3.12,7.78,3.9-2.37-.33-5.46-1-7.51-2.46a.5.5,0,0,0-.58.82,16.17,16.17,0,0,0,5.83,2.27A13.4,13.4,0,0,1,.73,33.22a.5.5,0,1,0-.46.89,13.87,13.87,0,0,0,5.27,1.34,11.35,11.35,0,0,1-4.68-.55.5.5,0,0,0-.35.94,11.53,11.53,0,0,0,4,.66,18.46,18.46,0,0,0,2.8-.23,11.51,11.51,0,0,1-6.1.41.5.5,0,0,0-.25,1,9.79,9.79,0,0,0,2.38.28,19.17,19.17,0,0,0,8.9-2.75,18,18,0,0,0,1.67,2c.83.89,3,3.55,4.74,3.5-.64,2.8,2.62,6.82,4.12,8.78,1.36,1.78,4.73,6.82,7.88,7.75-.22,3.33,2.06,7.76,3.18,10.1a61.33,61.33,0,0,0,3.94,7.66h0s2.47,6.33,2.74,11.17S38.87,99,38.87,99H77.7S75.77,90.91,76,86.08s3.12-11.14,3.15-11.2a63.65,63.65,0,0,0,3.7-7.28c1.2-2.51,3.73-7.41,3.09-10.79,3.11-1.42,6.29-5.71,7.63-7.31,1.67-2,5.38-6.14,4.39-8.86,1.75.09,3.95-2.6,4.78-3.49A10.77,10.77,0,0,0,105.08,34h.09a.5.5,0,0,0,.35.15h.08l.84-.15c2.83,0,8.86-.45,12-2.94A.5.5,0,0,0,118.53,30.37Zm-35.4-11.7c0,.13,0,.25,0,.38-.54.3-1.09.59-1.62.84C82.05,19.51,82.59,19.1,83.13,18.67ZM69.18,35c1-1.27,3.08-3.71,3.24-5.74,1.6-.5,3.3-2.83,4-3.66a10.25,10.25,0,0,0,2.16-3.38l.07,0a30.38,30.38,0,0,0,4.81-1.25c.17,1,.45,3.55,1.4,4.87a14.91,14.91,0,0,0-4.24,4.06c-1,1.36-4.45,4.14-5.39,6.6-2.91.21-5,5.23-5.77,7.69-.64,2-3.63,6.66-3.72,10-3.29,1.06-4.45,7.4-5.35,10.32-.53,1.75-1.78,4.23-2.61,6.73-.68-2.8-1.73-5.54-1.89-7a24.91,24.91,0,0,0-1.68-6.87c3-1.74,5-7.7,5.86-9.84a27.38,27.38,0,0,0,2.12-6.69C64.89,41,68,36.48,69.18,35ZM55.37,22.34l0,.08-.25.09A1.58,1.58,0,0,0,55.37,22.34ZM53.58,7.82l.06.1-.51.51Zm.64-.95.25-.4.13.35-.25.31Zm.82,1c.24.51.5,1,.77,1.47-.32-.41-.63-.84-.93-1.29Zm.75-.94.13.46L55.76,7Zm1-1.55c0,.74.14,1.48.26,2.19-.19-.57-.35-1.16-.49-1.76C56.64,5.65,56.71,5.5,56.79,5.36Zm-1.43-.49c0,.24.08.49.13.73l-.17.24c-.06-.19-.12-.37-.18-.56ZM53.78,3.31a10.57,10.57,0,0,0,.29,1.85l-.35.61a8.9,8.9,0,0,1-.38-1.33C53.5,4.06,53.65,3.68,53.78,3.31ZM52.7,5.89c.11.31.23.61.36.9a34.18,34.18,0,0,1-2.58,3.29C51.2,8.86,52,7.4,52.7,5.89ZM47,19.31c.58-1.31,2-4.24.45-5.28h0a.5.5,0,0,0,.26-.07l.23-.14.1,0a.5.5,0,0,0,.34-.13l.62-.59A35.22,35.22,0,0,0,54.19,8.8a21.81,21.81,0,0,0,4.67,4.93,9.46,9.46,0,0,0-1.59,3c-.25.73-1.14,2.14-1.63,3.49a38.22,38.22,0,0,0-1.93-4.05c-.52-1.4-2-4.49-3.81-3.51s-.21,4,.42,5.38,2.34,5.71,4.57,4.66c-2,1.36-1.07,5.7-.69,7.68.28,1.44.74,5,2.09,7.1A18.85,18.85,0,0,0,53,43.86c-.48,1.54-2.27,4.55-3.2,7.4-1-3.08-3.28-6.54-3.91-8.23a23.49,23.49,0,0,0-2.66-5.15C45,36,44.75,31.16,44.78,29.41a17.55,17.55,0,0,0-.5-5.58C45.62,22.83,46.57,20.27,47,19.31ZM34.4,53.2c-.9-3.19-5-7-6.15-8.78-1-1.58-3-4.32-5.13-5.47A15.76,15.76,0,0,0,24,34.45c.16-1.47.67-4.89-1.36-5.22s-2.42,3.07-2.45,4.56c0,.77-.44,2.38-.5,3.82a38.29,38.29,0,0,0-3.06-3.28A9.5,9.5,0,0,0,14.13,32v0a.49.49,0,0,0,.23-.38c0-.06,0-.37,0-.84.54-2.75,1.4-8.65-.32-12.27A19.7,19.7,0,0,0,21,19.7c.88,0,1.45,0,1.57-.06A12.21,12.21,0,0,0,23.82,23c.44.93,1.43,3.39,2.75,4.39a2.23,2.23,0,0,0-.26.26c-1.94,2.43,2.1,5.74,3.77,7.22,1.24,1.1,4.35,4.23,6.87,4.56.23,2.59,1.81,5.71,2.62,7.44,1,2.22,3.59,8.63,6.75,9.78-.9,3,.12,7.5.58,9.87.21,1.09.41,3,.79,5-1.17-3.5-3.86-7.12-4.86-9C41.26,59.66,38.22,53.09,34.4,53.2Z"/>
            <polygon class="cls-2"
                     points="108.01 99.16 105.91 86.73 99.45 90.72 103.34 84.24 91.01 82.15 103.43 80.04 99.45 73.59 105.93 77.48 108.01 65.14 110.12 77.57 116.58 73.59 112.69 80.07 125.02 82.15 112.59 84.26 116.58 90.48 110.1 86.82 108.01 99.16 108.01 99.16"/>
            <path class="cls-2"
                  d="M103.23,96.62A15.19,15.19,0,0,1,99,94.45a15.28,15.28,0,0,1-4.55-5.32,15.13,15.13,0,0,1-.92-2.2"/>
            <path class="cls-2"
                  d="M93.55,77.37a15.19,15.19,0,0,1,2.17-4.2A15.3,15.3,0,0,1,101,68.61a15.18,15.18,0,0,1,2.2-.92"/>
            <path class="cls-2" d="M112.8,67.69a15.19,15.19,0,0,1,4.2,2.17,15.24,15.24,0,0,1,5.48,7.51"/>
            <path class="cls-2"
                  d="M122.48,86.94a15.19,15.19,0,0,1-2.17,4.2A15.29,15.29,0,0,1,115,95.69a15.16,15.16,0,0,1-2.2.92"/>
            <path class="cls-2" d="M108,84.51a2.36,2.36,0,1,1,2.36-2.36A2.36,2.36,0,0,1,108,84.51Z"/>
        </g>
    </g>
</svg>