<svg xmlns="http://www.w3.org/2000/svg" viewBox="0 0 68.93 57.78">
    <defs>
        <style>
            .cls-1,.cls-3,.cls-4{fill:#ff5a00;}.cls-1,.cls-2{stroke:#ff5a00;stroke-miterlimit:10;}.cls-2{fill:none;}.cls-3{font-size:14px;}.cls-3,.cls-4{font-family:Avenir-Light,
            Avenir;}.cls-4{font-size:20px;}
        </style>
    </defs>
    <title>Economy</title>
    <g id="Capa_2" data-name="Capa 2">
        <g id="πœ_h_1" data-name="πœºh_1">
            <path class="cls-1"
                  d="M35.42,51.21H22.29a2.72,2.72,0,0,1-2.22-4.28l3.74-5.33A4.71,4.71,0,0,0,20,34.18H14l-1.1,2h7a2.72,2.72,0,0,1,2.22,4.28l-3.74,5.33a4.71,4.71,0,0,0,3.86,7.42H36.52Z"/>
            <path class="cls-2"
                  d="M38.83,12.82A11.84,11.84,0,0,0,28.46,30.38L38.83,49.12,49.19,30.38A11.84,11.84,0,0,0,38.83,12.82Zm0,18.13a6.3,6.3,0,1,1,6.29-6.29A6.29,6.29,0,0,1,38.83,31Z"/>
            <circle class="cls-2" cx="38.83" cy="24.66" r="4.29"/>
            <circle class="cls-2" cx="10.6" cy="15.35" r="2.59"/>
            <path class="cls-2"
                  d="M10.6,7.25a8.1,8.1,0,0,0-7.1,12l7.1,12.82L17.7,19.26a8.1,8.1,0,0,0-7.09-12Zm0,12.69a4.6,4.6,0,1,1,4.59-4.59A4.59,4.59,0,0,1,10.6,19.94Z"/>
            <path class="cls-1"
                  d="M20.7,15.35A10.1,10.1,0,1,0,1.76,20.23l8.84,16,8.84-16A10.06,10.06,0,0,0,20.7,15.35Zm-3,3.91L10.6,32.08,3.51,19.26a8.1,8.1,0,1,1,14.19,0Z"/>
            <path class="cls-1"
                  d="M10.6,10.75a4.6,4.6,0,1,0,4.59,4.6A4.6,4.6,0,0,0,10.6,10.75Zm0,7.19a2.6,2.6,0,1,1,2.59-2.59A2.6,2.6,0,0,1,10.6,17.94Z"/>
            <path class="cls-1"
                  d="M38.83,10.82A13.84,13.84,0,0,0,26.71,31.35l12.12,21.9,12.12-21.9A13.84,13.84,0,0,0,38.83,10.82ZM49.19,30.38,38.83,49.12,28.46,30.38a11.84,11.84,0,1,1,20.73,0Z"/>
            <path class="cls-1"
                  d="M38.83,18.36a6.3,6.3,0,1,0,6.29,6.3A6.3,6.3,0,0,0,38.83,18.36Zm0,10.59a4.3,4.3,0,1,1,4.29-4.29A4.3,4.3,0,0,1,38.83,29Z"/>
            <text class="cls-3" transform="translate(44.43 54.28)">.EU</text>
            <text class="cls-4" transform="translate(54.77 18.99) rotate(-15.69)">€</text>
        </g>
    </g>
</svg>