<svg xmlns="http://www.w3.org/2000/svg" viewBox="0 0 401.6 401.6">
    <defs>
        <style>
            .cls-1{fill:#0b9239;stroke:#eb5c1c;stroke-miterlimit:10;stroke-width:8px;}.cls-2{font-size:60px;fill:#fff;font-family:Avenir-Black,
            Avenir;}.cls-3{letter-spacing:-0.09em;}.cls-4{letter-spacing:-0.07em;}
        </style>
    </defs>
    <title>sabado</title>
    <g id="Capa_2" data-name="Capa 2">
        <g id="Capa_1-2" data-name="Capa 1">
            <path class="cls-1"
                  d="M397.6,135.2a8.21,8.21,0,0,0-8-8H282.4a8.2,8.2,0,0,1-8-8V12A7.67,7.67,0,0,0,272,6.4,7.69,7.69,0,0,0,266.4,4H135.2a7.67,7.67,0,0,0-5.6,2.4,7.68,7.68,0,0,0-2.4,5.6V119.2a8.2,8.2,0,0,1-8,8H12a7.68,7.68,0,0,0-5.6,2.4A7.67,7.67,0,0,0,4,135.2V266.4A7.69,7.69,0,0,0,6.4,272a7.67,7.67,0,0,0,5.6,2.4H119.2a8.2,8.2,0,0,1,8,8V389.6a8.21,8.21,0,0,0,8,8H266.4a8.2,8.2,0,0,0,8-8V282.4a8.21,8.21,0,0,1,8-8H389.6a8.2,8.2,0,0,0,8-8Zm0,0"/>
        </g>
        <g id="Capa_2-2" data-name="Capa 2">
            <text class="cls-2" transform="translate(45.5 216.44)">S
                <tspan class="cls-3" x="34.44" y="0">A</tspan>
                <tspan x="73.38" y="0">TURD</tspan>
                <tspan class="cls-4" x="236.7" y="0">A</tspan>
                <tspan x="276.72" y="0">Y</tspan>
            </text>
        </g>
    </g>
</svg>