<svg xmlns="http://www.w3.org/2000/svg" viewBox="0 0 401.6 401.6">
    <defs>
        <style>
            .cls-1{fill:#0b9239;stroke:#eb5c1c;stroke-miterlimit:10;stroke-width:8px;}.cls-2{font-size:70px;fill:#fff;font-family:Avenir-Black,
            Avenir;}
        </style>
    </defs>
    <title>12</title>
    <g id="Capa_2" data-name="Capa 2">
        <g id="Capa_1-2" data-name="Capa 1">
            <path class="cls-1"
                  d="M397.6,135.2a8.21,8.21,0,0,0-8-8H282.4a8.2,8.2,0,0,1-8-8V12A7.67,7.67,0,0,0,272,6.4,7.69,7.69,0,0,0,266.4,4H135.2a7.67,7.67,0,0,0-5.6,2.4,7.68,7.68,0,0,0-2.4,5.6V119.2a8.2,8.2,0,0,1-8,8H12a7.68,7.68,0,0,0-5.6,2.4A7.67,7.67,0,0,0,4,135.2V266.4A7.69,7.69,0,0,0,6.4,272a7.67,7.67,0,0,0,5.6,2.4H119.2a8.2,8.2,0,0,1,8,8V389.6a8.21,8.21,0,0,0,8,8H266.4a8.2,8.2,0,0,0,8-8V282.4a8.21,8.21,0,0,1,8-8H389.6a8.2,8.2,0,0,0,8-8Zm0,0"/>
        </g>
        <g id="Capa_2-2" data-name="Capa 2">
            <text class="cls-2" transform="translate(110.06 224)">12:00</text>
        </g>
    </g>
</svg>