<svg xmlns="http://www.w3.org/2000/svg" viewBox="0 0 68.93 53.03">
    <defs>
        <style>
            .cls-1,.cls-3{fill:#ff5a00;}.cls-1,.cls-2{stroke:#ff5a00;stroke-miterlimit:10;}.cls-2{fill:none;}.cls-3{font-size:14px;font-family:Avenir-Light,
            Avenir;}
        </style>
    </defs>
    <title>EuroNacex_1</title>
    <g id="Capa_2" data-name="Capa 2">
        <g id="πœ_h_1" data-name="πœºh_1">
            <path class="cls-1"
                  d="M35.42,46.47H22.29a2.72,2.72,0,0,1-2.22-4.28l3.74-5.33A4.71,4.71,0,0,0,20,29.44H14l-1.1,2h7a2.72,2.72,0,0,1,2.22,4.28L18.44,41a4.71,4.71,0,0,0,3.86,7.42H36.52Z"/>
            <path class="cls-2"
                  d="M38.83,8.07A11.84,11.84,0,0,0,28.46,25.63L38.83,44.37,49.19,25.63A11.84,11.84,0,0,0,38.83,8.07Zm0,18.13a6.3,6.3,0,1,1,6.29-6.29A6.29,6.29,0,0,1,38.83,26.21Z"/>
            <circle class="cls-2" cx="38.83" cy="19.91" r="4.29"/>
            <circle class="cls-2" cx="10.6" cy="10.6" r="2.59"/>
            <path class="cls-2"
                  d="M10.6,2.5a8.1,8.1,0,0,0-7.1,12l7.1,12.82L17.7,14.51a8.1,8.1,0,0,0-7.09-12Zm0,12.69A4.6,4.6,0,1,1,15.2,10.6,4.59,4.59,0,0,1,10.6,15.19Z"/>
            <path class="cls-1"
                  d="M20.7,10.6A10.1,10.1,0,1,0,1.76,15.48l8.84,16,8.84-16A10.06,10.06,0,0,0,20.7,10.6Zm-3,3.91L10.6,27.34,3.51,14.51a8.1,8.1,0,1,1,14.19,0Z"/>
            <path class="cls-1"
                  d="M10.6,6a4.6,4.6,0,1,0,4.59,4.6A4.6,4.6,0,0,0,10.6,6Zm0,7.19A2.6,2.6,0,1,1,13.2,10.6,2.6,2.6,0,0,1,10.6,13.19Z"/>
            <path class="cls-1"
                  d="M38.83,6.07A13.84,13.84,0,0,0,26.71,26.6L38.83,48.5,50.94,26.6A13.84,13.84,0,0,0,38.83,6.07ZM49.19,25.63,38.83,44.37,28.46,25.63a11.84,11.84,0,1,1,20.73,0Z"/>
            <path class="cls-1"
                  d="M38.83,13.62a6.3,6.3,0,1,0,6.29,6.3A6.3,6.3,0,0,0,38.83,13.62Zm0,10.59a4.3,4.3,0,1,1,4.29-4.29A4.3,4.3,0,0,1,38.83,24.21Z"/>
            <text class="cls-3" transform="translate(44.43 49.53)">.EU</text>
        </g>
    </g>
</svg>