<svg xmlns="http://www.w3.org/2000/svg" viewBox="0 0 33.32 33.4">
    <defs>
        <style>.cls-1{fill:none;stroke:#ff5a00;stroke-linecap:round;stroke-linejoin:round;stroke-width:1.44px;}</style>
    </defs>
    <title>pluspack</title>
    <g id="Capa_2" data-name="Capa 2">
        <g id="Modo_de_aislamiento" data-name="Modo de aislamiento">
            <path class="cls-1" d="M16.54,23.74"/>
            <path class="cls-1" d="M1.7,7.7H31.62a1,1,0,0,1,1,1v23a1,1,0,0,1-1,1H1.7a1,1,0,0,1-1-1v-23a1,1,0,0,1,1-1Z"/>
            <path class="cls-1"
                  d="M.86,7.73,4.79,1.54A2.85,2.85,0,0,1,6.61.72H26.72a2.88,2.88,0,0,1,1.81.82l3.93,6.19"/>
            <polyline class="cls-1" points="18.98 0.72 20.12 7.67 20.12 12.43 13.21 12.43 13.21 7.67 14.34 0.72"/>
        </g>
    </g>
</svg>