<?xml version="1.0" encoding="utf-8"?>
<!-- Generator: Adobe Illustrator 25.2.3, SVG Export Plug-In . SVG Version: 6.00 Build 0)  -->
<svg version="1.1" id="Capa_1" xmlns="http://www.w3.org/2000/svg" xmlns:xlink="http://www.w3.org/1999/xlink" x="0px" y="0px"
	 viewBox="0 0 37.1 33.1" style="enable-background:new 0 0 37.1 33.1;" xml:space="preserve">
<style type="text/css">
	.st0{fill:#00C800;}
	.st1{fill:#FF5A00;}
</style>
<path class="st0" d="M30.9,21.5c0,0.9-0.7,1.6-1.5,1.6c-2-0.1-2-3.1,0-3.2C30.2,20,30.9,20.7,30.9,21.5z M37,21.6
	c0,3.3-1.9,5.5-3.8,7.5c-0.9,1-1.7,2-2.4,3.1c-0.3,0.5-0.8,0.7-1.3,0.7h-0.4c-0.5,0-1-0.3-1.3-0.7c-0.7-1.1-1.6-2.1-2.4-3.1
	c-1.8-2.1-3.7-4.2-3.7-7.5C22.1,11,36.6,11,37,21.6z M34,21.6c-0.3-6.4-8.9-6.4-9.2,0c0,2.1,1.3,3.6,2.9,5.4c0.6,0.6,1.1,1.3,1.7,2
	c0.5-0.7,1.1-1.3,1.7-2C32.7,25.1,34,23.7,34,21.6z"/>
<g id="Capa_2_1_">
	<g id="Modo_de_aislamiento">
		<path class="st1" d="M22.6,30.1H0.8c-0.4,0-0.7-0.3-0.7-0.7c0-0.4,0.3-0.7,0.7-0.7h21.8c0.4,0,0.7,0.3,0.7,0.7
			C23.3,29.8,23,30.1,22.6,30.1z"/>
		<path class="st1" d="M4.2,30.1c-0.4,0-0.7-0.3-0.7-0.7V14.7c0-0.4,0.3-0.7,0.7-0.7s0.7,0.3,0.7,0.7v14.7
			C4.9,29.8,4.6,30.1,4.2,30.1z"/>
		<path class="st1" d="M12.3,30.1c-0.4,0-0.7-0.3-0.7-0.7V14.7c0-0.4,0.3-0.7,0.7-0.7s0.7,0.3,0.7,0.7v14.7
			C13,29.8,12.7,30.1,12.3,30.1z"/>
		<path class="st1" d="M30,12.3c-1.2,0-2.4-0.5-3.2-1.4c-0.5,0.6-1.2,1-2,1.2c-1.1,0.3-2.3,0.2-3.3-0.4c-0.4-0.2-0.8-0.5-1.1-0.8
			c-1.3,1.4-3.5,1.8-5.3,0.8c-0.4-0.2-0.8-0.5-1.1-0.8c-0.5,0.6-1.2,1-2,1.2c-1.1,0.3-2.3,0.2-3.3-0.4c-0.4-0.2-0.8-0.5-1.1-0.8
			c-1.3,1.4-3.5,1.8-5.3,0.8C0.6,10.9-0.3,9,0.1,7.2c0-0.1,0-0.1,0-0.2l3.7-6.5C3.9,0.2,4.2,0,4.5,0h25.4c0.3,0,0.5,0.2,0.7,0.4
			L34.2,7c0,0.1,0,0.1,0,0.2c0.2,1.2,0,2.3-0.7,3.3c-0.7,1-1.7,1.6-2.8,1.8C30.5,12.3,30.2,12.3,30,12.3z M26.8,9L26.8,9
			c0.3,0,0.5,0.1,0.6,0.4c0.6,1.1,1.9,1.7,3.1,1.5c1.6-0.3,2.6-1.8,2.4-3.3l-3.4-6H4.9l-3.4,6c-0.2,1.2,0.4,2.4,1.5,3
			c1.4,0.8,3.2,0.3,4-1.1C7.1,9.1,7.3,9,7.6,9h0c0.3,0,0.5,0.1,0.6,0.4c0.3,0.5,0.7,0.9,1.1,1.1c1.4,0.8,3.2,0.3,4-1.1
			c0.3-0.5,1-0.5,1.3,0c0.3,0.5,0.7,0.9,1.1,1.1c1.4,0.8,3.2,0.3,4-1.1C19.9,9.1,20.1,9,20.4,9l0,0c0.3,0,0.5,0.1,0.6,0.4
			c0.3,0.5,0.7,0.9,1.1,1.1c0.7,0.4,1.5,0.5,2.2,0.3c0.8-0.2,1.4-0.7,1.8-1.4C26.3,9.1,26.5,9,26.8,9z"/>
		<path class="st1" d="M7.5,10.1c0,0-0.1,0-0.1,0C7,10.1,6.8,9.7,6.8,9.3l1.6-8.2c0.1-0.4,0.4-0.7,0.8-0.6c0.4,0.1,0.7,0.4,0.6,0.8
			L8.2,9.5C8.2,9.9,7.9,10.1,7.5,10.1z"/>
		<path class="st1" d="M13.9,10.1C13.9,10.1,13.9,10.1,13.9,10.1c-0.4,0-0.7-0.4-0.7-0.8l0.5-8.2c0-0.4,0.4-0.7,0.8-0.7
			c0.4,0,0.7,0.4,0.7,0.8l-0.5,8.2C14.6,9.8,14.3,10.1,13.9,10.1z"/>
		<path class="st1" d="M20.3,10.1c-0.4,0-0.7-0.3-0.7-0.7L19,1.2c0-0.4,0.3-0.7,0.7-0.8c0.4,0,0.7,0.3,0.8,0.7L21,9.4
			C21,9.8,20.7,10.1,20.3,10.1C20.3,10.1,20.3,10.1,20.3,10.1z"/>
		<path class="st1" d="M26.6,10.1c-0.3,0-0.7-0.3-0.7-0.6l-1.6-8.2c-0.1-0.4,0.2-0.8,0.6-0.8c0.4-0.1,0.8,0.2,0.8,0.6l1.6,8.2
			c0.1,0.4-0.2,0.8-0.6,0.8C26.7,10.1,26.7,10.1,26.6,10.1z"/>
		<path class="st1" d="M9.6,23.9c-0.4,0-0.7-0.3-0.7-0.7v-4.4c0-0.4,0.3-0.7,0.7-0.7s0.7,0.3,0.7,0.7v4.4
			C10.3,23.6,10,23.9,9.6,23.9z"/>
	</g>
</g>
</svg>
