<svg xmlns="http://www.w3.org/2000/svg" viewBox="0 0 31.31 59.36">
    <defs>
        <style>.cls-1{fill:none;}.cls-2{fill:#ff5a00;}</style>
    </defs>
    <title>Premium</title>
    <g id="Capa_2" data-name="Capa 2">
        <g id="πœ_h_1" data-name="πœºh_1">
            <circle class="cls-1" cx="15.66" cy="27.01" r="4.86"/>
            <path class="cls-1"
                  d="M15.66,13.62A13.4,13.4,0,0,0,3.93,33.48l11.73,21.2,11.73-21.2A13.4,13.4,0,0,0,15.66,13.62Zm0,20.51A7.12,7.12,0,1,1,22.78,27,7.12,7.12,0,0,1,15.66,34.13Z"/>
            <path class="cls-2"
                  d="M15.66,11.36A15.66,15.66,0,0,0,1.95,34.58L15.66,59.36,29.37,34.58A15.66,15.66,0,0,0,15.66,11.36ZM27.39,33.49,15.66,54.68,3.93,33.48a13.39,13.39,0,1,1,23.46,0Z"/>
            <path class="cls-2"
                  d="M15.66,19.89A7.12,7.12,0,1,0,22.78,27,7.13,7.13,0,0,0,15.66,19.89Zm0,12A4.86,4.86,0,1,1,20.52,27,4.86,4.86,0,0,1,15.66,31.87Z"/>
            <polygon class="cls-2"
                     points="15.32 0 16.67 2.74 19.7 3.18 17.51 5.31 18.02 8.32 15.32 6.9 12.62 8.32 13.13 5.31 10.94 3.18 13.97 2.74 15.32 0"/>
            <polygon class="cls-2"
                     points="5.21 3.43 6.33 5.71 8.85 6.08 7.03 7.85 7.46 10.36 5.21 9.18 2.96 10.36 3.39 7.85 1.56 6.08 4.08 5.71 5.21 3.43"/>
            <polygon class="cls-2"
                     points="25.43 3.43 26.56 5.71 29.07 6.08 27.25 7.85 27.68 10.36 25.43 9.18 23.18 10.36 23.61 7.85 21.79 6.08 24.31 5.71 25.43 3.43"/>
        </g>
    </g>
</svg>