<?xml version="1.0" encoding="UTF-8"?>
<svg id="Camada_1" xmlns="http://www.w3.org/2000/svg" viewBox="0 0 32 32">
  <defs>
    <style>
      .cls-1 {
        fill: #0273eb;
      }
    </style>
  </defs>
  <g id="_x33_19_x2C__Email_x2C__Mail_x2C__Message">
    <path class="cls-1" d="M1.48,17.31h3.44c.16,0,.32-.16.32-.32s-.16-.32-.32-.32H1.53c-.16,0-.32.16-.32.32s.11.32.27.32Z"/>
    <path class="cls-1" d="M2.93,15.32h7.37c.16,0,.32-.16.32-.32s-.16-.32-.32-.32H2.88c-.16,0-.32.16-.32.32s.16.32.32.32h.05Z"/>
    <path class="cls-1" d="M29.68,7.24H8.42c-1.02,0-1.83.81-1.83,1.83v1.56h-3.71c-.16,0-.32.16-.32.32s.16.32.32.32h3.71v1.67c0,.16.16.32.32.32s.32-.16.32-.32v-3.88c0-.43.22-.81.59-1.02l11.14,9.47,11.14-9.47c-.16-.05-.32-.11-.54-.11h.11c.43,0,.86.27,1.02.65l-7.37,6.19.05.05,7.32,7.86c-.16.38-.59.65-1.02.65h-.05c.22,0,.38-.05.54-.16l-7.37-7.86-.05-.05-3.5,3.01c-.05.05-.16.05-.22.05s-.16,0-.22-.05l-3.5-3.01c0,.05-.05.05-.05.05l-7.43,7.91c-.32-.22-.54-.54-.54-.97v-5.27c0-.16-.16-.32-.32-.32s-.32.16-.32.32v4.36h-2.37c-.16,0-.32.16-.32.32s.16.32.32.32h2.37v.22c0,1.02.81,1.83,1.83,1.83h21.2c1.02,0,1.83-.81,1.83-1.83v-13.13c0-1.02-.81-1.83-1.83-1.83Z"/>
    <path class="cls-1" d="M3.58,18.65H.83c-.16,0-.32.16-.32.32s.16.32.32.32h2.74c.16,0,.32-.16.32-.32s-.16-.32-.32-.32Z"/>
  </g>
</svg>