<?xml version="1.0" encoding="UTF-8"?>
<svg id="Camada_1" xmlns="http://www.w3.org/2000/svg" viewBox="0 0 64 64">
  <defs>
    <style>
      .cls-1 {
        fill: #01cc2b;
      }
    </style>
  </defs>
  <path class="cls-1" d="M57.4,13.51s.04-.04.06-.06c1.75-1.83,3.47-3.68,5.15-5.56,1.33-1.49,1.18-2.66-.45-3.86-1.94-1.43-4.17-1.85-6.5-1.68-2.71.2-4.84,1.57-6.67,3.37-4.89-3.12-10.69-4.93-16.91-4.93C14.67.78.51,14.95.51,32.36s14.16,31.57,31.57,31.57,31.57-14.16,31.57-31.57c0-7.06-2.33-13.58-6.26-18.84ZM32.08,61.93c-16.31,0-29.57-13.27-29.57-29.57S15.78,2.78,32.08,2.78c5.69,0,11.01,1.62,15.53,4.42-6,6.72-15.8,20.49-20.35,27.59-.94,1.46-1.86,2.93-2.8,4.42-.12-.09-.21-.12-.24-.18-.18-.36-.36-.72-.53-1.09-1.16-2.49-2.32-4.98-4.11-7.11-2.25-2.68-4.99-3.53-8.31-2.42-3.49,1.16-4.77,4.26-2.91,7.43.23.39.48.78.75,1.15,3.21,4.28,5.89,8.85,7.74,13.91,1.15,3.14,3.26,5.2,6.85,5.33,1.8.07,3.45-.3,4.56-1.73,1.13-1.45,2.08-3.06,2.98-4.67,2.88-5.17,6.02-10.17,9.48-14.97,3.17-4.39,10.75-14.62,15.29-19.82,3.53,4.87,5.63,10.86,5.63,17.32,0,16.31-13.27,29.57-29.57,29.57Z"/>
</svg>