<?xml version="1.0" encoding="UTF-8"?>
<svg id="Camada_1" xmlns="http://www.w3.org/2000/svg" viewBox="0 0 64 64">
  <defs>
    <style>
      .cls-1 {
        fill: #e50e11;
      }

      .cls-2 {
        fill: #fff;
      }
    </style>
  </defs>
  <g>
    <path class="cls-1" d="M37.55,8.5c-.87-1.51-2.44-2.42-4.19-2.42s-3.31.9-4.19,2.42L6.27,48.18c-.87,1.51-.87,3.32,0,4.83.87,1.51,2.44,2.42,4.19,2.42h45.81c1.75,0,3.31-.9,4.19-2.42.87-1.51.87-3.32,0-4.83L37.55,8.5Z"/>
    <path class="cls-1" d="M63.11,47.21L39.37,6.09c-2.67-4.62-9.33-4.62-12,0L3.62,47.21c-2.67,4.62.67,10.39,6,10.39h47.49c5.33,0,8.67-5.77,6-10.39ZM61.63,53.68c-1.12,1.94-3.12,3.09-5.35,3.09H10.46c-2.23,0-4.24-1.16-5.35-3.09-1.12-1.94-1.12-4.25,0-6.18L28.01,7.83c1.12-1.94,3.12-3.09,5.35-3.09s4.24,1.16,5.35,3.09l22.91,39.68c1.12,1.94,1.12,4.25,0,6.18Z"/>
  </g>
  <path class="cls-2" d="M30.49,47.95c0-2.01,1.4-3.46,3.3-3.46,2.01,0,3.3,1.45,3.3,3.46s-1.29,3.46-3.3,3.46-3.3-1.51-3.3-3.46ZM31.88,39.96l-.78-26.82h5.36l-.78,26.82h-3.8Z"/>
</svg>