<?xml version="1.0" encoding="UTF-8"?>
<svg id="Camada_1" xmlns="http://www.w3.org/2000/svg" viewBox="0 0 64 64">
  <defs>
    <style>
      .cls-1 {
        fill: #0273eb;
      }
    </style>
  </defs>
  <polygon class="cls-1" points="53.44 36.29 53.44 46.36 10.57 46.36 10.57 36.29 .51 36.29 .51 46.36 .51 56.42 10.57 56.42 53.44 56.42 63.51 56.42 63.51 46.36 63.51 36.29 53.44 36.29"/>
  <path class="cls-1" d="M46.03,27.01l-1.71-1.71c-.83-.83-2.17-.83-3,0l-5.15,5.15V6.79h-8.34v24.24l-5.73-5.73c-.83-.83-2.17-.83-3,0l-1.71,1.71c-.83.83-.83,2.17,0,3l12.81,12.82c.83.83,2.17.83,3,0l12.81-12.82c.83-.83.83-2.17,0-3Z"/>
</svg>