<svg xmlns="http://www.w3.org/2000/svg" xmlns:xlink="http://www.w3.org/1999/xlink" viewBox="0,0,256,256" width="48px" height="48px"><g fill="#0273eb" fill-rule="nonzero" stroke="none" stroke-width="1" stroke-linecap="butt" stroke-linejoin="miter" stroke-miterlimit="10" stroke-dasharray="" stroke-dashoffset="0" font-family="none" font-weight="none" font-size="none" text-anchor="none" style="mix-blend-mode: normal"><g transform="scale(5.33333,5.33333)"><path d="M13.5,6c-4.1245,0 -7.5,3.3755 -7.5,7.5v21c0,4.1245 3.3755,7.5 7.5,7.5h21c4.1245,0 7.5,-3.3755 7.5,-7.5v-21c0,-4.1245 -3.3755,-7.5 -7.5,-7.5zM31.5,12h3c0.83,0 1.5,0.67 1.5,1.5c0,0.83 -0.67,1.5 -1.5,1.5h-3c-0.83,0 -1.5,-0.67 -1.5,-1.5c0,-0.83 0.67,-1.5 1.5,-1.5zM24,18c3.33148,0 6,2.66852 6,6c0,3.33148 -2.66852,6 -6,6c-3.33148,0 -6,-2.66852 -6,-6c0,-3.33148 2.66852,-6 6,-6zM9,20h6.95313c-0.60452,1.20769 -0.95312,2.56318 -0.95312,4c0,4.95279 4.0472,9 9,9c4.9528,0 9,-4.04721 9,-9c0,-1.43682 -0.3486,-2.79231 -0.95312,-4h6.95313v14.5c0,2.5035 -1.9965,4.5 -4.5,4.5h-21c-2.5035,0 -4.5,-1.9965 -4.5,-4.5z"></path></g></g></svg>