<?xml version="1.0" encoding="UTF-8"?>
<svg id="Camada_1" xmlns="http://www.w3.org/2000/svg" viewBox="0 0 32 32">
  <defs>
    <style>
      .cls-1 {
        fill: #0273eb;
      }
    </style>
  </defs>
  <g>
    <path class="cls-1" d="M28.08,7.6c-1.64-.29-4.3-.11-7.56-2.53-2.36-1.75-4.59-4.33-4.59-4.33,0,0-2.26,2.61-4.59,4.33-3.2,2.36-5.92,2.24-7.56,2.53.01,1.84-1.44,14.48,6.62,20.26,2.2,1.58,5.52,3.61,5.54,3.61.02,0,3.34-2.03,5.54-3.61,8.06-5.78,6.61-18.42,6.62-20.26ZM25.66,12.7c-.02,1.7-.18,3.41-.55,5.08-.37,1.68-.97,3.32-1.88,4.78-1.03,1.64-2.42,2.81-4.01,3.88-.83.55-1.66,1.09-2.51,1.62-.26.16-.62.52-.93.41-.23-.08-.46-.28-.67-.41-.36-.22-.72-.45-1.08-.68-.92-.59-1.85-1.18-2.72-1.84-2.85-2.14-4.28-5.54-4.83-8.97-.23-1.44-.32-2.9-.32-4.35,0-.84.08-1.68.07-2.51,0-.07.05-.15.13-.17.76-.13,1.53-.18,2.28-.34,1.12-.24,2.18-.68,3.13-1.31,1.5-.99,2.83-2.32,4.01-3.67.06-.07.19-.07.24,0,1.2,1.38,2.56,2.73,4.09,3.73.96.62,2.01,1.06,3.13,1.28.73.14,1.47.18,2.2.3.09.01.12.08.12.14,0,0,0,.02,0,.03,0,1,.08,2,.07,3Z"/>
    <path class="cls-1" d="M15.91,31.61s-.03,0-.04,0h0c-.07-.03-.22-.12-.59-.35-.24-.15-.74-.46-1.39-.87-1-.64-2.44-1.57-3.59-2.4-3.13-2.25-5.21-5.78-6.17-10.49-.77-3.8-.61-7.36-.54-9.07.02-.35.03-.63.03-.81,0-.07.05-.12.11-.14.3-.05.65-.09,1.01-.14,1.65-.2,3.91-.46,6.49-2.37C13.54,3.27,15.79.68,15.82.65c.05-.06.15-.06.21,0,.02.03,2.26,2.58,4.57,4.31,2.62,1.95,4.84,2.19,6.46,2.37.37.04.73.08,1.04.14.07.01.11.07.11.14,0,.17.01.45.03.81.08,1.71.24,5.27-.54,9.07-.96,4.72-3.03,8.25-6.17,10.49-1.16.83-2.59,1.76-3.59,2.4-.65.41-1.15.72-1.39.87-.37.23-.51.32-.59.35h0s-.03.01-.05.01c0,0,0,0,0,0ZM3.9,7.72c0,.18-.01.42-.03.7-.08,1.7-.24,5.23.53,9,.95,4.65,2.98,8.12,6.06,10.33,2.03,1.45,5,3.29,5.46,3.56.46-.27,3.43-2.11,5.46-3.56,3.07-2.21,5.11-5.68,6.06-10.33.77-3.77.61-7.3.53-9-.01-.29-.02-.53-.03-.7-.28-.04-.59-.08-.91-.12-1.65-.18-3.92-.43-6.6-2.43-2.06-1.53-4.04-3.71-4.51-4.23-.47.53-2.48,2.73-4.51,4.23-2.64,1.95-4.94,2.23-6.62,2.42-.32.04-.62.07-.88.12ZM15.91,28.62c-.06,0-.11,0-.17-.03-.18-.06-.34-.18-.5-.29-.07-.05-.13-.09-.19-.13-.35-.22-.71-.45-1.08-.68l-.06-.04c-.89-.57-1.81-1.16-2.67-1.8-3.22-2.42-4.44-6.26-4.88-9.06-.22-1.36-.32-2.83-.32-4.37,0-.41.02-.83.04-1.23.02-.42.04-.86.04-1.28,0-.13.09-.28.24-.3.32-.05.65-.1.97-.13.43-.05.88-.11,1.31-.2,1.1-.23,2.14-.67,3.09-1.29,1.29-.85,2.55-2.01,3.98-3.65.05-.06.14-.1.22-.1h0c.09,0,.17.04.22.1,1.46,1.67,2.75,2.85,4.06,3.71.95.62,1.99,1.04,3.08,1.26.4.08.81.13,1.21.17.32.04.66.08.99.13.14.02.23.13.24.27,0,.01,0,.02,0,.04,0,.47.02.95.04,1.41.02.52.04,1.06.04,1.6-.02,1.87-.2,3.54-.55,5.1-.41,1.84-1.05,3.46-1.9,4.83-.91,1.45-2.12,2.63-4.05,3.92-.78.52-1.6,1.05-2.51,1.62-.05.03-.11.08-.18.12-.2.15-.45.33-.7.33ZM15.92,4.29s-.02,0-.02,0c-1.44,1.66-2.73,2.83-4.03,3.69-.97.64-2.04,1.09-3.18,1.33-.44.09-.89.15-1.33.2-.31.04-.64.08-.96.13,0,0-.01.02-.01.03,0,.43-.02.87-.04,1.3-.02.4-.04.81-.04,1.22,0,1.53.1,2.99.32,4.33.44,2.75,1.63,6.52,4.78,8.89.85.64,1.77,1.23,2.65,1.79l.06.04c.37.23.73.46,1.08.68.07.04.13.09.21.14.15.1.3.21.43.26.18.06.41-.11.62-.26.07-.05.13-.1.19-.13.91-.57,1.73-1.09,2.5-1.62,1.89-1.27,3.08-2.42,3.97-3.84.84-1.34,1.46-2.93,1.86-4.74.34-1.55.52-3.2.54-5.05,0-.53-.02-1.07-.04-1.59-.02-.46-.04-.94-.04-1.42,0,0,0-.02,0-.02,0,0,0,0-.01,0-.32-.05-.65-.09-.97-.13-.4-.05-.82-.09-1.23-.18-1.13-.22-2.2-.66-3.18-1.3-1.34-.87-2.65-2.07-4.12-3.76,0,0-.01,0-.02,0Z"/>
  </g>
  <path class="cls-1" d="M12.49,23.29c.4-.24.8-.58.98-1.02.15-.37.17-.77.2-1.16.03-.36.07-.74.33-1.01,1.09-1.1,2.18-2.2,3.26-3.29.56-.57,1.12-1.13,1.69-1.7.22-.22.43-.48.73-.59.34-.12.72-.11,1.08-.15.57-.07,1.01-.27,1.39-.7.44-.51.72-1.15.76-1.82.01-.17-.22-.25-.33-.14-.4.4-.8.81-1.2,1.21-.47-.07-.94-.14-1.41-.21-.07-.47-.15-.94-.22-1.41.4-.4.8-.81,1.2-1.21.11-.11.04-.35-.14-.33-.49.04-.94.19-1.36.44-.39.23-.77.56-.96.98-.3.67-.05,1.51-.47,2.12-.1.15-.27.28-.4.41-.16.17-.33.33-.49.5-.34.35-.69.69-1.03,1.04-.7.71-1.4,1.41-2.1,2.12-.41.41-.81.82-1.22,1.23-.18.18-.35.32-.6.4-.25.07-.52.08-.78.11-.59.05-1.11.18-1.53.63-.49.52-.8,1.2-.85,1.92-.01.17.22.25.33.14.4-.4.8-.81,1.2-1.21.47.07.94.14,1.41.21.07.47.15.94.22,1.41-.4.4-.8.81-1.2,1.21-.11.11-.04.35.14.33.49-.04.94-.19,1.36-.44Z"/>
</svg>