<?xml version="1.0" encoding="utf-8"?>
<!-- Generator: Adobe Illustrator 24.2.3, SVG Export Plug-In . SVG Version: 6.00 Build 0)  -->
<svg version="1.1" id="Capa_1" xmlns="http://www.w3.org/2000/svg" x="0px" y="0px"
	 viewBox="0 0 782 278" style="enable-background:new 0 0 782 278;" xml:space="preserve">
<style type="text/css">
	.st0{fill:#FF5100;}
	.st1{fill:#00AE42;}
	.st2{fill:#FFFFFF;}
</style>
	<path class="st0" d="M40,201.1l10.6-67.8H68l25.5,41.4h0.2l6.5-41.4h17.5L107,201.1H89.5l-25.5-41.5h-0.2l-6.5,41.5H40z
	 M156.7,175.9l-3.7-21.6h-0.2l-10.6,21.6H156.7z M135.2,189.4l-6.5,11.8h-18.5l36.5-67.8h19l14.7,67.8h-18.6l-2.5-11.8H135.2z
	 M238.5,135c-4.8-2.1-9.8-3.4-15.4-3.4c-9.4,0-19.6,4.1-27.3,11c-7.5,6.7-12.3,15.5-13.8,24.8c-1.6,10.1,0.4,18.9,6.8,25.6
	c5.9,6.4,14.3,10,23.6,10c5.4,0,9.8-1.4,15.9-3.2l3.3-21.1c-4.3,4.4-10.5,7.2-16.2,7.2c-10.9,0-17-7.7-15.3-18.4
	c1.7-10.5,10.2-18.8,20.8-18.8c6,0,11.4,2.6,14.2,7.4L238.5,135z M285.4,148.3l2.3-14.9h-38.2l-10.6,67.8h38.2l2.3-14.9h-20.7
	l1.8-11.7h19.7l2.3-14.9h-19.7l1.8-11.3H285.4z M311.7,164.9l-31.9,36.2h21.1l18.9-22.1l10.6,22.1h21l-19.1-36.2l26.4-31.6h-21.5
	l-13,17.5l-7.5-17.5h-21.5L311.7,164.9z"/>
	<path class="st0" d="M526,97.2L519,143h0.3c6.5-7.3,13.6-10.7,22.7-10.7c16.7,0,23.1,11.1,20.5,27.9l-6.3,40.8h-23.4l5.2-34
	c1.2-7.8,1.3-15.8-8.1-15.8c-9.2,0-13.4,8.1-14.6,15.8l-5.2,34.1h-23.4l16-103.9H526z"/>
	<path class="st0" d="M617.5,132.1c-21.2,0.1-41.6,12.9-45.2,35.6c-3.4,22.7,13.2,35.3,34.3,35.2c21.2-0.1,41.6-12.9,45.1-35.5
	C655.2,144.7,638.7,132,617.5,132.1 M627.1,167.4c-1.3,8.4-7.8,14.9-17.3,14.9c-9.5,0-14.1-6.4-12.7-14.8
	c1.3-8.2,7.8-15.1,17.3-15.1C623.9,152.5,628.4,159.3,627.1,167.4"/>
	<path class="st0" d="M711.1,131.7c-7.7,0.1-16.1,3.2-21.4,9.8h-0.3l1.2-7.5l-23.4,0.1l-18.6,96.6l24.7,0.1l8.1-36.7
	c4.1,5.8,11.5,8.5,19.1,8.5c19.6-0.1,35.5-16.2,38.4-35.3C741.8,148.2,730.7,131.6,711.1,131.7 M714.7,167.2
	c-1.3,8.4-7.8,14.9-17.3,14.9c-9.5,0-14-6.4-12.7-14.8c1.2-8.1,7.9-15,17.3-15C711.5,152.2,716,159,714.7,167.2"/>
	<path class="st0" d="M484.8,136.9c-6.3-3.1-13.5-4.2-20.9-4.2c-14.3,0.1-30,7.3-32.5,23.5c-1.8,11.8,4.9,15.5,11.9,17.3
	c7,1.9,14.3,2.1,13.5,7.3c-0.6,3.6-5.1,5-8.1,5.1c-5.7,0-13.2-3.3-17.4-6.6l-10.9,16.4c7.2,4.8,15.9,7.5,25.3,7.5
	c15.2,0,32-7.3,34.7-24.7c1.9-12.3-5.5-17.4-16-19.5c-3.1-0.7-10.3-1.3-9.6-5.8c0.5-3.4,5.3-4.5,8-4.5c4,0,8.7,1.2,12,3.2
	L484.8,136.9z"/>
	<g>
	<polygon class="st1" points="391.3,93.2 391.3,71.8 409.5,63.3 409.5,84.7 	"/>
		<polygon class="st1"
				 points="389.3,93.1 389.3,71.7 382.8,68.7 382.8,78.3 375.4,74.7 375.4,65.4 371.3,63.3 371.3,84.8 	"/>
		<polygon class="st1" points="384.3,67.3 390.5,70.3 408.1,62 401.4,59 	"/>
		<polygon class="st1" points="376.6,63.9 393.8,55.8 390.5,54.1 372.8,62 	"/>
		<path class="st1" d="M402,191.3c0,6.6-5.3,11.9-11.9,11.9c-6.5,0-11.9-5.3-11.9-11.9c0-6.6,5.3-11.9,11.9-11.9
		C396.7,179.4,402,184.7,402,191.3"/>
		<path class="st1" d="M390.2,104.8c-16.2,0-29.3-13.2-29.3-29.5c0-16.3,13.1-29.5,29.3-29.5c16.2,0,29.3,13.2,29.3,29.5
		C419.5,91.6,406.4,104.8,390.2,104.8 M428.3,75.3c0-21.2-17.1-38.3-38.1-38.3c-21.1,0-38.1,17.2-38.1,38.3c0,5.1,1,10,2.8,14.4h0
		L355,90c0,0.1,0.1,0.2,0.1,0.3l30.4,72.4c0.7,1.9,2.5,3.3,4.7,3.3c2.2,0,4-1.4,4.7-3.3l30.4-72.5v0l0,0
		C427.3,85.6,428.3,80.6,428.3,75.3"/>
</g>
	<g>
	<path class="st1"
		  d="M423.6,214.2h10.8l-0.4,2.6h-7.9l-0.6,4h7.5l-0.4,2.6h-7.5l-0.6,4.4h8.3l-0.4,2.6h-11.2L423.6,214.2z"/>
		<path class="st1" d="M437.5,213.1h2.8l-2.4,17.4h-2.8L437.5,213.1z"/>
		<path class="st1" d="M450.7,225.9c0,1.6,1.1,2.6,2.6,2.6c1.4,0,2.4-0.6,3.2-1.5l1.8,1.5c-1.5,1.6-3.2,2.2-5,2.2
		c-3.3,0-5.7-2.3-5.2-5.8c0.5-3.5,3.5-5.8,6.8-5.8c3.1,0,4.9,2.2,4.3,6l-0.1,0.8H450.7z M456.6,223.8c0.2-1.6-0.7-2.6-2.4-2.6
		c-1.6,0-2.8,1-3.2,2.6H456.6z"/>
		<path class="st1" d="M462.6,219.4h2.6l-0.2,1.8h0c0.6-1.1,1.8-2,3.7-2c3,0,3.7,2.1,3.4,4.3l-1,7h-2.8l0.8-5.6
		c0.2-1.2,0.4-3.2-1.6-3.2c-1.8,0-2.7,1.3-2.9,2.8l-0.9,6h-2.8L462.6,219.4z"/>
		<path class="st1" d="M474.3,219.4h3l1.9,7.7h0l4-7.7h2.8l-5.9,11h-2.9L474.3,219.4z"/>
		<path class="st1" d="M487.8,219.4h2.8l-1.5,11h-2.8L487.8,219.4z M490.8,214.2h3.1l-3.7,3.3h-2.2L490.8,214.2z"/>
		<path class="st1" d="M499.2,219.1c3.3,0,5.7,2.3,5.2,5.8c-0.5,3.5-3.5,5.8-6.8,5.8c-3.3,0-5.7-2.3-5.2-5.8
		C492.9,221.5,495.9,219.1,499.2,219.1z M497.9,228.2c2,0,3.5-1.6,3.7-3.3c0.2-1.7-0.8-3.3-2.8-3.3s-3.5,1.6-3.7,3.3
		C494.9,226.6,495.9,228.2,497.9,228.2z"/>
		<path class="st1" d="M520,222.5c-0.4-0.7-1.1-1.1-2-1.1c-0.7,0-1.7,0.3-1.8,1.2c-0.3,2,5.9,0.4,5.3,4.7c-0.4,2.6-3,3.5-5.3,3.5
		c-1.7,0-3.1-0.4-4-1.7l2.1-1.7c0.6,0.8,1.3,1.4,2.4,1.4c0.8,0,1.9-0.4,2-1.3c0.3-2.3-5.9-0.5-5.3-4.7c0.3-2.5,2.7-3.6,4.9-3.6
		c1.5,0,3,0.5,3.7,1.7L520,222.5z"/>
		<path class="st1" d="M530.3,219.1c3.3,0,5.7,2.3,5.2,5.8c-0.5,3.5-3.5,5.8-6.8,5.8c-3.3,0-5.7-2.3-5.2-5.8
		C523.9,221.5,526.9,219.1,530.3,219.1z M529,228.2c2,0,3.5-1.6,3.7-3.3c0.2-1.7-0.8-3.3-2.8-3.3s-3.5,1.6-3.7,3.3
		C526,226.6,526.9,228.2,529,228.2z"/>
		<path class="st1" d="M544.3,222.5c-0.4-0.7-1.1-1.1-2-1.1c-0.7,0-1.7,0.3-1.8,1.2c-0.3,2,5.9,0.4,5.3,4.7c-0.4,2.6-3,3.5-5.3,3.5
		c-1.7,0-3.1-0.4-4-1.7l2.1-1.7c0.6,0.8,1.3,1.4,2.4,1.4c0.8,0,1.9-0.4,2-1.3c0.3-2.3-5.9-0.5-5.3-4.7c0.3-2.5,2.7-3.6,4.9-3.6
		c1.5,0,3,0.5,3.7,1.7L544.3,222.5z"/>
		<path class="st1" d="M547.4,221.8l0.3-2.3h2.3l0.5-3.2h2.8l-0.5,3.2h3l-0.3,2.3h-3l-0.7,4.8c-0.2,1.1,0.1,1.8,1.3,1.8
		c0.5,0,1.1-0.1,1.5-0.3l-0.3,2.3c-0.6,0.3-1.6,0.4-2.3,0.4c-2.9,0-3.4-1.3-3.1-3.9l0.7-5.1H547.4z"/>
		<path class="st1" d="M559.3,225.9c0,1.6,1.1,2.6,2.6,2.6c1.4,0,2.4-0.6,3.2-1.5l1.8,1.5c-1.5,1.6-3.2,2.2-5,2.2
		c-3.3,0-5.7-2.3-5.2-5.8c0.5-3.5,3.5-5.8,6.8-5.8c3.1,0,4.9,2.2,4.3,6l-0.1,0.8H559.3z M565.2,223.8c0.2-1.6-0.7-2.6-2.4-2.6
		c-1.6,0-2.8,1-3.2,2.6H565.2z"/>
		<path class="st1" d="M571.2,219.4h2.6l-0.2,1.8h0c0.6-1.1,1.8-2,3.7-2c3,0,3.7,2.1,3.4,4.3l-1,7h-2.8l0.8-5.6
		c0.2-1.2,0.4-3.2-1.6-3.2c-1.8,0-2.7,1.3-2.9,2.8l-0.9,6h-2.8L571.2,219.4z"/>
		<path class="st1" d="M584.4,219.4h2.8l-1.5,11h-2.8L584.4,219.4z M586.5,214c1,0,1.7,0.7,1.6,1.7c-0.1,0.9-1,1.7-2,1.7
		s-1.6-0.8-1.5-1.7C584.7,214.8,585.5,214,586.5,214z"/>
		<path class="st1" d="M591.2,213.1h2.8l-1.1,7.7h0.1c0.7-0.7,1.9-1.7,4-1.7c3.2,0,5,2.5,4.5,5.8c-0.5,3.3-2.9,5.8-6.3,5.8
		c-1.5,0-2.9-0.6-3.5-1.9h0l-0.2,1.7h-2.6L591.2,213.1z M595.9,221.6c-2,0-3.5,1.6-3.7,3.3c-0.3,1.7,0.7,3.3,2.8,3.3
		s3.5-1.6,3.7-3.3C599,223.2,598,221.6,595.9,221.6z"/>
		<path class="st1" d="M605.8,213.1h2.8l-2.4,17.4h-2.8L605.8,213.1z"/>
		<path class="st1" d="M612.1,225.9c0,1.6,1.1,2.6,2.6,2.6c1.4,0,2.4-0.6,3.2-1.5l1.8,1.5c-1.5,1.6-3.2,2.2-5,2.2
		c-3.3,0-5.7-2.3-5.2-5.8c0.5-3.5,3.5-5.8,6.8-5.8c3.1,0,4.9,2.2,4.3,6l-0.1,0.8H612.1z M618,223.8c0.2-1.6-0.7-2.6-2.4-2.6
		c-1.6,0-2.8,1-3.2,2.6H618z"/>
</g>
	<path class="st2" d="M843.3,201.1l10.6-67.8h17.4l25.5,41.4h0.2l6.5-41.4H921l-10.6,67.8h-17.5l-25.5-41.5h-0.2l-6.5,41.5H843.3z
	 M960,175.9l-3.7-21.6h-0.2l-10.6,21.6H960z M938.6,189.4l-6.5,11.8h-18.5l36.5-67.8h19l14.7,67.8h-18.6l-2.5-11.8H938.6z
	 M1041.9,135c-4.8-2.1-9.8-3.4-15.4-3.4c-9.4,0-19.6,4.1-27.3,11c-7.5,6.7-12.3,15.5-13.8,24.8c-1.6,10.1,0.4,18.9,6.8,25.6
	c5.9,6.4,14.3,10,23.6,10c5.4,0,9.8-1.4,15.9-3.2l3.3-21.1c-4.3,4.4-10.5,7.2-16.2,7.2c-10.9,0-17-7.7-15.3-18.4
	c1.7-10.5,10.2-18.8,20.8-18.8c6,0,11.4,2.6,14.2,7.4L1041.9,135z M1088.8,148.3l2.3-14.9h-38.2l-10.6,67.8h38.2l2.3-14.9h-20.7
	l1.8-11.7h19.7l2.3-14.9h-19.7l1.8-11.3H1088.8z M1115.1,164.9l-31.9,36.2h21.1l18.9-22.1l10.6,22.1h21l-19.2-36.2l26.4-31.6h-21.5
	l-13,17.5l-7.5-17.5h-21.5L1115.1,164.9z"/>
	<path class="st2" d="M1329.4,97.2l-7.1,45.8h0.3c6.5-7.3,13.6-10.7,22.7-10.7c16.7,0,23.1,11.1,20.5,27.9l-6.3,40.8h-23.4l5.2-34
	c1.2-7.8,1.3-15.8-8.1-15.8c-9.2,0-13.4,8.1-14.6,15.8l-5.2,34.1h-23.4l16-103.9H1329.4z"/>
	<path class="st2" d="M1420.9,132.1c-21.2,0.1-41.6,12.9-45.2,35.6c-3.4,22.7,13.2,35.3,34.3,35.2c21.2-0.1,41.6-12.9,45.1-35.5
	C1458.6,144.7,1442.1,132,1420.9,132.1 M1430.5,167.4c-1.3,8.4-7.8,14.9-17.3,14.9c-9.5,0-14.1-6.4-12.7-14.8
	c1.3-8.2,7.8-15.1,17.3-15.1C1427.3,152.5,1431.7,159.3,1430.5,167.4"/>
	<path class="st2" d="M1514.4,131.7c-7.7,0.1-16.1,3.2-21.4,9.8h-0.3l1.2-7.5l-23.4,0.1l-18.6,96.6l24.7,0.1l8.1-36.7
	c4.1,5.8,11.5,8.5,19.1,8.5c19.6-0.1,35.5-16.2,38.4-35.3C1545.2,148.2,1534.1,131.6,1514.4,131.7 M1518.1,167.2
	c-1.3,8.4-7.8,14.9-17.3,14.9c-9.5,0-14-6.4-12.7-14.8c1.2-8.1,7.9-15,17.3-15C1514.9,152.2,1519.3,159,1518.1,167.2"/>
	<path class="st2" d="M1288.2,136.9c-6.3-3.1-13.5-4.2-20.9-4.2c-14.3,0.1-30,7.3-32.5,23.5c-1.8,11.8,4.9,15.5,11.9,17.3
	c7,1.9,14.3,2.1,13.5,7.3c-0.6,3.6-5.1,5-8.1,5.1c-5.7,0-13.2-3.3-17.4-6.6l-10.9,16.4c7.2,4.8,15.9,7.5,25.3,7.5
	c15.2,0,32-7.3,34.7-24.7c1.9-12.3-5.5-17.4-16-19.5c-3.1-0.7-10.3-1.3-9.6-5.8c0.5-3.4,5.3-4.5,8-4.5c4,0,8.7,1.2,12,3.2
	L1288.2,136.9z"/>
	<g>
	<polygon class="st2" points="1194.7,93.2 1194.7,71.8 1212.8,63.3 1212.8,84.7 	"/>
		<polygon class="st2" points="1192.7,93.1 1192.7,71.7 1186.1,68.7 1186.1,78.3 1178.8,74.7 1178.8,65.4 1174.6,63.3 1174.6,84.8
		"/>
		<polygon class="st2" points="1187.6,67.3 1193.8,70.3 1211.4,62 1204.8,59 	"/>
		<polygon class="st2" points="1179.9,63.9 1197.2,55.8 1193.8,54.1 1176.1,62 	"/>
		<path class="st2" d="M1205.4,191.3c0,6.6-5.3,11.9-11.9,11.9c-6.5,0-11.9-5.3-11.9-11.9c0-6.6,5.3-11.9,11.9-11.9
		C1200.1,179.4,1205.4,184.7,1205.4,191.3"/>
		<path class="st2" d="M1193.6,104.8c-16.2,0-29.3-13.2-29.3-29.5c0-16.3,13.1-29.5,29.3-29.5c16.2,0,29.3,13.2,29.3,29.5
		C1222.9,91.6,1209.8,104.8,1193.6,104.8 M1231.7,75.3c0-21.2-17.1-38.3-38.1-38.3c-21.1,0-38.1,17.2-38.1,38.3c0,5.1,1,10,2.8,14.4
		h0l0.1,0.3c0,0.1,0.1,0.2,0.1,0.3l30.4,72.4c0.7,1.9,2.5,3.3,4.7,3.3s4-1.4,4.7-3.3l30.4-72.5v0l0,0
		C1230.6,85.6,1231.7,80.6,1231.7,75.3"/>
</g>
	<g>
	<path class="st2"
		  d="M1226.9,214.2h10.8l-0.4,2.6h-7.9l-0.6,4h7.5l-0.4,2.6h-7.5l-0.6,4.4h8.3l-0.4,2.6h-11.2L1226.9,214.2z"/>
		<path class="st2" d="M1240.9,213.1h2.8l-2.4,17.4h-2.8L1240.9,213.1z"/>
		<path class="st2" d="M1254.1,225.9c0,1.6,1.1,2.6,2.6,2.6c1.4,0,2.4-0.6,3.2-1.5l1.8,1.5c-1.5,1.6-3.2,2.2-5,2.2
		c-3.3,0-5.7-2.3-5.2-5.8c0.5-3.5,3.5-5.8,6.8-5.8c3.1,0,4.9,2.2,4.3,6l-0.1,0.8H1254.1z M1260,223.8c0.2-1.6-0.7-2.6-2.4-2.6
		c-1.6,0-2.8,1-3.2,2.6H1260z"/>
		<path class="st2" d="M1266,219.4h2.6l-0.2,1.8h0c0.6-1.1,1.8-2,3.7-2c3,0,3.7,2.1,3.4,4.3l-1,7h-2.8l0.8-5.6
		c0.2-1.2,0.4-3.2-1.6-3.2c-1.8,0-2.7,1.3-2.9,2.8l-0.9,6h-2.8L1266,219.4z"/>
		<path class="st2" d="M1277.7,219.4h3l1.9,7.7h0l4-7.7h2.8l-5.9,11h-2.9L1277.7,219.4z"/>
		<path class="st2"
			  d="M1291.1,219.4h2.8l-1.5,11h-2.8L1291.1,219.4z M1294.2,214.2h3.1l-3.7,3.3h-2.2L1294.2,214.2z"/>
		<path class="st2" d="M1302.6,219.1c3.3,0,5.7,2.3,5.2,5.8c-0.5,3.5-3.5,5.8-6.8,5.8c-3.3,0-5.7-2.3-5.2-5.8
		C1296.3,221.5,1299.2,219.1,1302.6,219.1z M1301.3,228.2c2,0,3.5-1.6,3.7-3.3c0.2-1.7-0.8-3.3-2.8-3.3s-3.5,1.6-3.7,3.3
		C1298.3,226.6,1299.3,228.2,1301.3,228.2z"/>
		<path class="st2" d="M1323.4,222.5c-0.4-0.7-1.1-1.1-2-1.1c-0.7,0-1.7,0.3-1.8,1.2c-0.3,2,5.9,0.4,5.3,4.7c-0.4,2.6-3,3.5-5.3,3.5
		c-1.7,0-3.1-0.4-4-1.7l2.1-1.7c0.6,0.8,1.3,1.4,2.4,1.4c0.8,0,1.9-0.4,2-1.3c0.3-2.3-5.9-0.5-5.3-4.7c0.3-2.5,2.7-3.6,4.9-3.6
		c1.5,0,3,0.5,3.7,1.7L1323.4,222.5z"/>
		<path class="st2" d="M1333.6,219.1c3.3,0,5.7,2.3,5.2,5.8c-0.5,3.5-3.5,5.8-6.8,5.8c-3.3,0-5.7-2.3-5.2-5.8
		C1327.3,221.5,1330.3,219.1,1333.6,219.1z M1332.3,228.2c2,0,3.5-1.6,3.7-3.3c0.2-1.7-0.8-3.3-2.8-3.3s-3.5,1.6-3.7,3.3
		C1329.3,226.6,1330.3,228.2,1332.3,228.2z"/>
		<path class="st2" d="M1347.6,222.5c-0.4-0.7-1.1-1.1-2-1.1c-0.7,0-1.7,0.3-1.8,1.2c-0.3,2,5.9,0.4,5.3,4.7c-0.4,2.6-3,3.5-5.3,3.5
		c-1.7,0-3.1-0.4-4-1.7l2.1-1.7c0.6,0.8,1.3,1.4,2.4,1.4c0.8,0,1.9-0.4,2-1.3c0.3-2.3-5.9-0.5-5.3-4.7c0.3-2.5,2.7-3.6,4.9-3.6
		c1.5,0,3,0.5,3.7,1.7L1347.6,222.5z"/>
		<path class="st2" d="M1350.8,221.8l0.3-2.3h2.3l0.5-3.2h2.8l-0.5,3.2h3l-0.3,2.3h-3l-0.7,4.8c-0.2,1.1,0.1,1.8,1.3,1.8
		c0.5,0,1.1-0.1,1.5-0.3l-0.3,2.3c-0.6,0.3-1.6,0.4-2.3,0.4c-2.9,0-3.4-1.3-3.1-3.9l0.7-5.1H1350.8z"/>
		<path class="st2" d="M1362.6,225.9c0,1.6,1.1,2.6,2.6,2.6c1.4,0,2.4-0.6,3.2-1.5l1.8,1.5c-1.5,1.6-3.2,2.2-5,2.2
		c-3.3,0-5.7-2.3-5.2-5.8c0.5-3.5,3.5-5.8,6.8-5.8c3.1,0,4.9,2.2,4.3,6l-0.1,0.8H1362.6z M1368.6,223.8c0.2-1.6-0.7-2.6-2.4-2.6
		c-1.6,0-2.8,1-3.2,2.6H1368.6z"/>
		<path class="st2" d="M1374.5,219.4h2.6l-0.2,1.8h0c0.6-1.1,1.8-2,3.7-2c3,0,3.7,2.1,3.4,4.3l-1,7h-2.8l0.8-5.6
		c0.2-1.2,0.4-3.2-1.6-3.2c-1.8,0-2.7,1.3-2.9,2.8l-0.9,6h-2.8L1374.5,219.4z"/>
		<path class="st2" d="M1387.8,219.4h2.8l-1.5,11h-2.8L1387.8,219.4z M1389.9,214c1,0,1.7,0.7,1.6,1.7c-0.1,0.9-1,1.7-2,1.7
		s-1.6-0.8-1.5-1.7C1388,214.8,1388.9,214,1389.9,214z"/>
		<path class="st2" d="M1394.6,213.1h2.8l-1.1,7.7h0.1c0.7-0.7,1.9-1.7,4-1.7c3.2,0,5,2.5,4.5,5.8c-0.5,3.3-2.9,5.8-6.3,5.8
		c-1.5,0-2.9-0.6-3.5-1.9h0l-0.2,1.7h-2.6L1394.6,213.1z M1399.3,221.6c-2,0-3.5,1.6-3.7,3.3c-0.3,1.7,0.7,3.3,2.8,3.3
		s3.5-1.6,3.7-3.3C1402.3,223.2,1401.3,221.6,1399.3,221.6z"/>
		<path class="st2" d="M1409.1,213.1h2.8l-2.4,17.4h-2.8L1409.1,213.1z"/>
		<path class="st2" d="M1415.5,225.9c0,1.6,1.1,2.6,2.6,2.6c1.4,0,2.4-0.6,3.2-1.5l1.8,1.5c-1.5,1.6-3.2,2.2-5,2.2
		c-3.3,0-5.7-2.3-5.2-5.8c0.5-3.5,3.5-5.8,6.8-5.8c3.1,0,4.9,2.2,4.3,6l-0.1,0.8H1415.5z M1421.4,223.8c0.2-1.6-0.7-2.6-2.4-2.6
		c-1.6,0-2.8,1-3.2,2.6H1421.4z"/>
</g>
</svg>
