<?xml version="1.0" encoding="utf-8"?>
<!-- Generator: Adobe Illustrator 14.0.0, SVG Export Plug-In . SVG Version: 6.00 Build 43363)  -->
<!DOCTYPE svg PUBLIC "-//W3C//DTD SVG 1.1//EN" "http://www.w3.org/Graphics/SVG/1.1/DTD/svg11.dtd">
<svg version="1.1" id="Capa_1" xmlns="http://www.w3.org/2000/svg" x="0px" y="0px"
	 width="1%" height="1%" viewBox="900 238.431 2325.287 566.93" enable-background="new 900 238.431 2325.287 566.93"
	 xml:space="preserve" preserveAspectRatio="none">
<g id="Fondo">
</g>
	<g id="Guías">
</g>
	<g id="Primer_plano">
	<g>
		<path fill="#FF5100" d="M1006.968,294.352h120.603l175.971,283.667h1.23l44.931-283.667h120.604l-73.485,463.958h-120.604
			l-175.874-284.281h-1.23l-45.027,284.281H933.482L1006.968,294.352z"/>
		<path fill="#FF5100" d="M1606.493,677.701l-44.765,80.608h-127.987l251.93-463.958h131.679l101.266,463.958h-128.603
			l-17.384-80.608H1606.493z M1728.802,437.724h-1.23l-73.231,147.679h100.297L1728.802,437.724z"/>
		<path fill="#FF5100" d="M2318.176,450.029c-19.35-33.228-56.52-51.072-97.747-51.072c-73.838,0-132.647,56.61-144.05,128.604
			c-11.599,73.224,30.477,126.143,105.546,126.143c39.382,0,81.783-19.075,111.787-49.227L2270.81,749.08
			c-41.946,12.307-72.328,21.537-109.863,21.537c-64.609,0-122.243-24.613-163.317-68.302
			c-43.763-46.149-57.593-106.452-46.678-175.369c10.038-63.379,43.685-124.297,95.2-169.831
			c52.94-46.765,123.264-75.07,188.488-75.07c38.766,0,73.09,8.615,106.44,23.382L2318.176,450.029z"/>
		<path fill="#FF5100" d="M2521.709,396.496l-12.282,77.533h135.987l-16.179,102.145h-135.987l-12.669,79.991h143.37
			l-16.178,102.145h-263.975l73.486-463.957h263.974l-16.18,102.144H2521.709L2521.709,396.496z"/>
		<path fill="#FF5100" d="M2744.63,294.352h148.293l51.756,119.989l89.77-119.989h148.293l-182.503,215.981l132.398,247.977H2987.42
			l-73.246-151.371L2783.748,758.31h-145.831l220.798-247.977L2744.63,294.352z"/>
	</g>
</g>
</svg>
