<?xml version="1.0" encoding="utf-8"?>
<!-- Generator: Adobe Illustrator 24.2.3, SVG Export Plug-In . SVG Version: 6.00 Build 0)  -->
<svg version="1.1" id="Capa_1" xmlns="http://www.w3.org/2000/svg" x="0px" y="0px"
     viewBox="0 0 782 278" style="enable-background:new 0 0 782 278;" xml:space="preserve">
<style type="text/css">
	.st0{fill:#FF5100;}
	.st1{fill:#00AE42;}
	.st2{fill:#FFFFFF;}
</style>
    <path class="st0" d="M40,201.1l10.6-67.8H68l25.5,41.4h0.2l6.5-41.4h17.5L107,201.1H89.5l-25.5-41.5h-0.2l-6.5,41.5H40z
	 M156.7,175.9l-3.7-21.6h-0.2l-10.6,21.6H156.7z M135.2,189.4l-6.5,11.8h-18.5l36.5-67.8h19l14.7,67.8h-18.6l-2.5-11.8H135.2z
	 M238.5,135c-4.8-2.1-9.8-3.4-15.4-3.4c-9.4,0-19.6,4.1-27.3,11c-7.5,6.7-12.3,15.5-13.8,24.8c-1.6,10.1,0.4,18.9,6.8,25.6
	c5.9,6.4,14.3,10,23.6,10c5.4,0,9.8-1.4,15.9-3.2l3.3-21.1c-4.3,4.4-10.5,7.2-16.2,7.2c-10.9,0-17-7.7-15.3-18.4
	c1.7-10.5,10.2-18.8,20.8-18.8c6,0,11.4,2.6,14.2,7.4L238.5,135z M285.4,148.3l2.3-14.9h-38.2l-10.6,67.8h38.2l2.3-14.9h-20.7
	l1.8-11.7h19.7l2.3-14.9h-19.7l1.8-11.3H285.4z M311.7,164.9l-31.9,36.2h21.1l18.9-22.1l10.6,22.1h21l-19.1-36.2l26.4-31.6h-21.5
	l-13,17.5l-7.5-17.5h-21.5L311.7,164.9z"/>
    <path class="st0" d="M526,97.2L519,143h0.3c6.5-7.3,13.6-10.7,22.7-10.7c16.7,0,23.1,11.1,20.5,27.9l-6.3,40.8h-23.4l5.2-34
	c1.2-7.8,1.3-15.8-8.1-15.8c-9.2,0-13.4,8.1-14.6,15.8l-5.2,34.1h-23.4l16-103.9H526z"/>
    <path class="st0" d="M617.5,132.1c-21.2,0.1-41.6,12.9-45.2,35.6c-3.4,22.7,13.2,35.3,34.3,35.2c21.2-0.1,41.6-12.9,45.1-35.5
	C655.2,144.7,638.7,132,617.5,132.1 M627.1,167.4c-1.3,8.4-7.8,14.9-17.3,14.9c-9.5,0-14.1-6.4-12.7-14.8
	c1.3-8.2,7.8-15.1,17.3-15.1C623.9,152.5,628.4,159.3,627.1,167.4"/>
    <path class="st0" d="M711.1,131.7c-7.7,0.1-16.1,3.2-21.4,9.8h-0.3l1.2-7.5l-23.4,0.1l-18.6,96.6l24.7,0.1l8.1-36.7
	c4.1,5.8,11.5,8.5,19.1,8.5c19.6-0.1,35.5-16.2,38.4-35.3C741.8,148.2,730.7,131.6,711.1,131.7 M714.7,167.2
	c-1.3,8.4-7.8,14.9-17.3,14.9c-9.5,0-14-6.4-12.7-14.8c1.2-8.1,7.9-15,17.3-15C711.5,152.2,716,159,714.7,167.2"/>
    <path class="st0" d="M484.8,136.9c-6.3-3.1-13.5-4.2-20.9-4.2c-14.3,0.1-30,7.3-32.5,23.5c-1.8,11.8,4.9,15.5,11.9,17.3
	c7,1.9,14.3,2.1,13.5,7.3c-0.6,3.6-5.1,5-8.1,5.1c-5.7,0-13.2-3.3-17.4-6.6l-10.9,16.4c7.2,4.8,15.9,7.5,25.3,7.5
	c15.2,0,32-7.3,34.7-24.7c1.9-12.3-5.5-17.4-16-19.5c-3.1-0.7-10.3-1.3-9.6-5.8c0.5-3.4,5.3-4.5,8-4.5c4,0,8.7,1.2,12,3.2
	L484.8,136.9z"/>
    <g>
	<polygon class="st1" points="391.3,93.2 391.3,71.8 409.5,63.3 409.5,84.7 	"/>
        <polygon class="st1"
                 points="389.3,93.1 389.3,71.7 382.8,68.7 382.8,78.3 375.4,74.7 375.4,65.4 371.3,63.3 371.3,84.8 	"/>
        <polygon class="st1" points="384.3,67.3 390.5,70.3 408.1,62 401.4,59 	"/>
        <polygon class="st1" points="376.6,63.9 393.8,55.8 390.5,54.1 372.8,62 	"/>
        <path class="st1" d="M402,191.3c0,6.6-5.3,11.9-11.9,11.9c-6.5,0-11.9-5.3-11.9-11.9c0-6.6,5.3-11.9,11.9-11.9
		C396.7,179.4,402,184.7,402,191.3"/>
        <path class="st1" d="M390.2,104.8c-16.2,0-29.3-13.2-29.3-29.5c0-16.3,13.1-29.5,29.3-29.5c16.2,0,29.3,13.2,29.3,29.5
		C419.5,91.6,406.4,104.8,390.2,104.8 M428.3,75.3c0-21.2-17.1-38.3-38.1-38.3c-21.1,0-38.1,17.2-38.1,38.3c0,5.1,1,10,2.8,14.4h0
		L355,90c0,0.1,0.1,0.2,0.1,0.3l30.4,72.4c0.7,1.9,2.5,3.3,4.7,3.3c2.2,0,4-1.4,4.7-3.3l30.4-72.5v0l0,0
		C427.3,85.6,428.3,80.6,428.3,75.3"/>
</g>
    <g>
	<path class="st1" d="M428.1,213.7c5.1-0.1,8.2,3.3,7.5,8.5c-0.7,5.1-4.8,8.5-9.9,8.6c-5,0-8.1-3.4-7.4-8.5
		C419,217.2,423.1,213.7,428.1,213.7z M426.1,228.2c3.4,0,6-2.6,6.5-6c0.5-3.2-1.4-5.8-4.8-5.8c-3.4,0-6,2.6-6.4,5.8
		C420.8,225.7,422.7,228.2,426.1,228.2z"/>
        <path class="st1" d="M446.6,225.9c0,1.6,1.1,2.6,2.6,2.6c1.4,0,2.4-0.6,3.2-1.5l1.8,1.5c-1.5,1.6-3.2,2.2-5,2.2
		c-3.3,0-5.7-2.3-5.2-5.8c0.5-3.5,3.5-5.8,6.8-5.8c3.1,0,4.9,2.2,4.3,6l-0.1,0.8H446.6z M452.5,223.8c0.2-1.6-0.7-2.6-2.4-2.6
		c-1.6,0-2.8,1-3.2,2.6H452.5z"/>
        <path class="st1" d="M458.5,219.4h2.6l-0.2,1.8h0c0.6-1.1,1.8-2,3.7-2c3,0,3.7,2.1,3.4,4.3l-1,7h-2.8l0.8-5.6
		c0.2-1.2,0.4-3.2-1.6-3.2c-1.8,0-2.7,1.3-2.9,2.8l-0.9,6h-2.8L458.5,219.4z"/>
        <path class="st1" d="M470.2,219.4h3l1.9,7.7h0l4-7.7h2.8l-5.9,11h-2.9L470.2,219.4z"/>
        <path class="st1" d="M483.7,219.4h2.8l-1.5,11h-2.8L483.7,219.4z M485.8,214c1,0,1.7,0.7,1.6,1.7c-0.1,0.9-1,1.7-2,1.7
		s-1.6-0.8-1.5-1.7C483.9,214.8,484.8,214,485.8,214z"/>
        <path class="st1" d="M495.1,219.1c3.3,0,5.7,2.3,5.2,5.8c-0.5,3.5-3.5,5.8-6.8,5.8c-3.3,0-5.7-2.3-5.2-5.8
		C488.8,221.5,491.8,219.1,495.1,219.1z M493.8,228.2c2,0,3.5-1.6,3.7-3.3c0.2-1.7-0.8-3.3-2.8-3.3s-3.5,1.6-3.7,3.3
		C490.8,226.6,491.8,228.2,493.8,228.2z"/>
        <path class="st1" d="M515.9,222.5c-0.4-0.7-1.1-1.1-2-1.1c-0.7,0-1.7,0.3-1.8,1.2c-0.3,2,5.9,0.4,5.3,4.7c-0.4,2.6-3,3.5-5.3,3.5
		c-1.7,0-3.1-0.4-4-1.7l2.1-1.7c0.6,0.8,1.3,1.4,2.4,1.4c0.8,0,1.9-0.4,2-1.3c0.3-2.3-5.9-0.5-5.3-4.7c0.3-2.5,2.7-3.6,4.9-3.6
		c1.5,0,3,0.5,3.7,1.7L515.9,222.5z"/>
        <path class="st1" d="M529.2,230.4h-2.6l0.3-1.8h0c-0.7,1.1-1.8,2-3.7,2c-3,0-3.7-2.1-3.4-4.3l1-7h2.8l-0.8,5.6
		c-0.2,1.2-0.4,3.2,1.6,3.2c1.8,0,2.7-1.3,2.9-2.8l0.8-6h2.8L529.2,230.4z"/>
        <path class="st1" d="M539.3,222.5c-0.4-0.7-1.1-1.1-2-1.1c-0.7,0-1.7,0.3-1.8,1.2c-0.3,2,5.9,0.4,5.3,4.7c-0.4,2.6-3,3.5-5.3,3.5
		c-1.7,0-3.1-0.4-4-1.7l2.1-1.7c0.6,0.8,1.3,1.4,2.4,1.4c0.8,0,1.9-0.4,2-1.3c0.3-2.3-5.9-0.5-5.3-4.7c0.3-2.5,2.7-3.6,4.9-3.6
		c1.5,0,3,0.5,3.7,1.7L539.3,222.5z"/>
        <path class="st1" d="M542.4,221.8l0.3-2.3h2.3l0.5-3.2h2.8l-0.5,3.2h3l-0.3,2.3h-3l-0.7,4.8c-0.2,1.1,0.1,1.8,1.3,1.8
		c0.5,0,1.1-0.1,1.5-0.3l-0.3,2.3c-0.6,0.3-1.6,0.4-2.3,0.4c-2.9,0-3.4-1.3-3.1-3.9l0.7-5.1H542.4z"/>
        <path class="st1" d="M554.3,225.9c0,1.6,1.1,2.6,2.6,2.6c1.4,0,2.4-0.6,3.2-1.5l1.8,1.5c-1.5,1.6-3.2,2.2-5,2.2
		c-3.3,0-5.7-2.3-5.2-5.8c0.5-3.5,3.5-5.8,6.8-5.8c3.1,0,4.9,2.2,4.3,6l-0.1,0.8H554.3z M560.2,223.8c0.2-1.6-0.7-2.6-2.4-2.6
		c-1.6,0-2.8,1-3.2,2.6H560.2z"/>
        <path class="st1" d="M566.2,219.4h2.6l-0.2,1.8h0c0.6-1.1,1.8-2,3.7-2c3,0,3.7,2.1,3.4,4.3l-1,7H572l0.8-5.6
		c0.2-1.2,0.4-3.2-1.6-3.2c-1.8,0-2.7,1.3-2.9,2.8l-0.9,6h-2.8L566.2,219.4z"/>
        <path class="st1" d="M577.8,221.8l0.3-2.3h2.3l0.5-3.2h2.8l-0.5,3.2h3l-0.3,2.3h-3l-0.7,4.8c-0.2,1.1,0.1,1.8,1.3,1.8
		c0.5,0,1.1-0.1,1.5-0.3l-0.3,2.3c-0.6,0.3-1.6,0.4-2.3,0.4c-2.9,0-3.4-1.3-3.1-3.9l0.7-5.1H577.8z"/>
        <path class="st1" d="M593.9,228.9L593.9,228.9c-1,1.2-2.4,1.8-3.9,1.8c-2,0-3.9-1.1-3.5-3.3c0.5-3.6,4.7-3.8,7.5-3.8h0.7l0-0.3
		c0.2-1.4-0.8-2.1-2.2-2.1c-1.1,0-2.3,0.5-3.1,1.1l-1.2-1.4c1.4-1.2,3.2-1.8,4.9-1.8c4.7,0,4.2,3.4,4,5l-0.9,6.3h-2.5L593.9,228.9z
		 M594.2,225.5h-0.6c-1.5,0-4.1,0.1-4.4,1.7c-0.1,1,0.8,1.4,1.7,1.4c1.9,0,2.9-1,3.1-2.5L594.2,225.5z M594.9,214.2h3.1l-3.7,3.3
		h-2.2L594.9,214.2z"/>
        <path class="st1" d="M599.2,219.4h3l1.9,7.7h0l4-7.7h2.8l-5.9,11h-2.9L599.2,219.4z"/>
        <path class="st1" d="M614,225.9c0,1.6,1.1,2.6,2.6,2.6c1.4,0,2.4-0.6,3.2-1.5l1.8,1.5c-1.5,1.6-3.2,2.2-5,2.2
		c-3.3,0-5.7-2.3-5.2-5.8c0.5-3.5,3.5-5.8,6.8-5.8c3.1,0,4.9,2.2,4.3,6l-0.1,0.8H614z M619.9,223.8c0.2-1.6-0.7-2.6-2.4-2.6
		c-1.6,0-2.8,1-3.2,2.6H619.9z"/>
        <path class="st1" d="M626.8,213.1h2.8l-2.4,17.4h-2.8L626.8,213.1z"/>
</g>
    <path class="st2" d="M842,201.1l10.6-67.8H870l25.5,41.4h0.2l6.5-41.4h17.5L909,201.1h-17.5l-25.5-41.5h-0.2l-6.5,41.5H842z
	 M958.7,175.9l-3.7-21.6h-0.2l-10.6,21.6H958.7z M937.2,189.4l-6.5,11.8h-18.5l36.5-67.8h19l14.7,67.8h-18.6l-2.5-11.8H937.2z
	 M1040.5,135c-4.8-2.1-9.8-3.4-15.4-3.4c-9.4,0-19.6,4.1-27.3,11c-7.5,6.7-12.3,15.5-13.8,24.8c-1.6,10.1,0.4,18.9,6.8,25.6
	c5.9,6.4,14.3,10,23.6,10c5.4,0,9.8-1.4,15.9-3.2l3.3-21.1c-4.3,4.4-10.5,7.2-16.2,7.2c-10.9,0-17-7.7-15.3-18.4
	c1.7-10.5,10.2-18.8,20.8-18.8c6,0,11.4,2.6,14.2,7.4L1040.5,135z M1087.4,148.3l2.3-14.9h-38.2l-10.6,67.8h38.2l2.3-14.9h-20.7
	l1.8-11.7h19.7l2.3-14.9h-19.7l1.8-11.3H1087.4z M1113.7,164.9l-31.9,36.2h21.1l18.9-22.1l10.6,22.1h21l-19.1-36.2l26.4-31.6h-21.5
	l-13,17.5l-7.5-17.5h-21.5L1113.7,164.9z"/>
    <path class="st2" d="M1328,97.2L1321,143h0.3c6.5-7.3,13.6-10.7,22.7-10.7c16.7,0,23.1,11.1,20.5,27.9l-6.3,40.8h-23.4l5.2-34
	c1.2-7.8,1.3-15.8-8.1-15.8c-9.2,0-13.4,8.1-14.6,15.8l-5.2,34.1h-23.4l16-103.9H1328z"/>
    <path class="st2" d="M1419.5,132.1c-21.2,0.1-41.6,12.9-45.2,35.6c-3.4,22.7,13.2,35.3,34.3,35.2c21.2-0.1,41.6-12.9,45.1-35.5
	C1457.2,144.7,1440.7,132,1419.5,132.1 M1429.1,167.4c-1.3,8.4-7.8,14.9-17.3,14.9c-9.5,0-14.1-6.4-12.7-14.8
	c1.3-8.2,7.8-15.1,17.3-15.1C1425.9,152.5,1430.4,159.3,1429.1,167.4"/>
    <path class="st2" d="M1513.1,131.7c-7.7,0.1-16.1,3.2-21.4,9.8h-0.3l1.2-7.5l-23.4,0.1l-18.6,96.6l24.7,0.1l8.1-36.7
	c4.1,5.8,11.5,8.5,19.1,8.5c19.6-0.1,35.5-16.2,38.4-35.3C1543.8,148.2,1532.7,131.6,1513.1,131.7 M1516.7,167.2
	c-1.3,8.4-7.8,14.9-17.3,14.9c-9.5,0-14-6.4-12.7-14.8c1.2-8.1,7.9-15,17.3-15C1513.5,152.2,1518,159,1516.7,167.2"/>
    <path class="st2" d="M1286.8,136.9c-6.3-3.1-13.5-4.2-20.9-4.2c-14.3,0.1-30,7.3-32.5,23.5c-1.8,11.8,4.9,15.5,11.9,17.3
	c7,1.9,14.3,2.1,13.5,7.3c-0.6,3.6-5.1,5-8.1,5.1c-5.7,0-13.2-3.3-17.4-6.6l-10.9,16.4c7.2,4.8,15.9,7.5,25.3,7.5
	c15.2,0,32-7.3,34.7-24.7c1.9-12.3-5.5-17.4-16-19.5c-3.1-0.7-10.3-1.3-9.6-5.8c0.5-3.4,5.3-4.5,8-4.5c4,0,8.7,1.2,12,3.2
	L1286.8,136.9z"/>
    <g>
	<polygon class="st2" points="1193.3,93.2 1193.3,71.8 1211.5,63.3 1211.5,84.7 	"/>
        <polygon class="st2" points="1191.3,93.1 1191.3,71.7 1184.8,68.7 1184.8,78.3 1177.4,74.7 1177.4,65.4 1173.3,63.3 1173.3,84.8
		"/>
        <polygon class="st2" points="1186.3,67.3 1192.5,70.3 1210.1,62 1203.4,59 	"/>
        <polygon class="st2" points="1178.6,63.9 1195.8,55.8 1192.5,54.1 1174.8,62 	"/>
        <path class="st2" d="M1204,191.3c0,6.6-5.3,11.9-11.9,11.9c-6.5,0-11.9-5.3-11.9-11.9c0-6.6,5.3-11.9,11.9-11.9
		C1198.7,179.4,1204,184.7,1204,191.3"/>
        <path class="st2" d="M1192.2,104.8c-16.2,0-29.3-13.2-29.3-29.5c0-16.3,13.1-29.5,29.3-29.5c16.2,0,29.3,13.2,29.3,29.5
		C1221.5,91.6,1208.4,104.8,1192.2,104.8 M1230.3,75.3c0-21.2-17.1-38.3-38.1-38.3c-21.1,0-38.1,17.2-38.1,38.3c0,5.1,1,10,2.8,14.4
		h0l0.1,0.3c0,0.1,0.1,0.2,0.1,0.3l30.4,72.4c0.7,1.9,2.5,3.3,4.7,3.3c2.2,0,4-1.4,4.7-3.3l30.4-72.5v0l0,0
		C1229.3,85.6,1230.3,80.6,1230.3,75.3"/>
</g>
    <rect x="1218.2" y="213.1" style="fill:none;" width="241.7" height="30.7"/>
    <text transform="matrix(1 0 0 1 1218.2037 230.4423)" class="st2"
          style="font-family:'AvenirLTStd-HeavyOblique'; font-size:23px;">O envio sustentável</text>
</svg>
