<?xml version="1.0" encoding="UTF-8"?>
<svg id="Layer_1" data-name="Layer 1" xmlns="http://www.w3.org/2000/svg" viewBox="0 0 76.3 50">
  <defs>
    <style>
      .cls-1 {
        fill: #fff;
      }

      .cls-1, .cls-2, .cls-3 {
        stroke-width: 0px;
      }

      .cls-2 {
        fill: #c8102e;
      }

      .cls-3 {
        fill: #012169;
      }
    </style>
  </defs>
  <path class="cls-3" d="M76.3,5.72v39.88l-.14-.09c-.27,1.26-.96,2.37-1.92,3.16-.99.83-2.27,1.33-3.66,1.33H5.71c-1.49,0-2.85-.57-3.86-1.52-1.14-1.03-1.85-2.53-1.85-4.2V4.78l.08.05c.2-1.37.9-2.59,1.91-3.45,1-.86,2.3-1.38,3.72-1.38h64.87c1.41,0,2.7.51,3.69,1.36,1.24,1.04,2.03,2.61,2.03,4.36Z"/>
  <path class="cls-1" d="M50.07,23.62l-2.08,1.38,2.08,1.34,5.18,3.34,4.85,3.13,16.2,10.45v2.34l-.14-.09c-.27,1.26-.96,2.37-1.92,3.16-.99.83-2.27,1.33-3.66,1.33h-4.26l-16.25-10.48-4.77-3.08-5.64-3.63-1.81-1.17-1.77,1.17-5.08,3.37-4.77,3.16-16.1,10.66h-4.42c-1.49,0-2.85-.57-3.86-1.52-1.14-1.03-1.85-2.53-1.85-4.2v-.92l16.02-10.55,4.75-3.13,5.46-3.6,1.49-.98-1.49-.96-5.94-3.83-4.85-3.13L0,7.22v-2.44l.08.05c.2-1.37.9-2.59,1.91-3.45,1-.86,2.3-1.38,3.72-1.38h3.53l16.99,10.9,4.77,3.06,5.01,3.22,1.84,1.18,1.78-1.18,5.67-3.75,4.77-3.16L65.57,0h5.01c1.41,0,2.7.51,3.69,1.36,1.24,1.04,2.03,2.61,2.03,4.36v.53l-16.5,10.93-4.73,3.13-5,3.31Z"/>
  <path class="cls-2" d="M28,32.81l-.58-1.17-1.19.78-.59.39L1.85,48.48c1.01.95,2.37,1.52,3.86,1.52h.55l19.97-13.17,2.83-1.87-1.06-2.15ZM56.38,32.81l-2.43-1.56-3.88-.38-4.17-.4,3.64,2.34.53.34,24.17,15.52c.96-.79,1.65-1.9,1.92-3.16l-19.78-12.7ZM70.58,0h-1.13l-19.38,12.86-2.98,1.98.33,2.34.27,1.96,2.38-1.59.55-.37L74.27,1.36c-.99-.85-2.28-1.36-3.69-1.36ZM26.62,17.18l-.39-.25L1.99,1.38C.98,2.24.28,3.46.08,4.83l18.98,12.35.91.59,6.26.56,2.53.22-2.14-1.37Z"/>
  <path class="cls-1" d="M26.23,0v50h23.84V0h-23.84ZM0,17.18v15.63h76.3v-15.63H0Z"/>
  <path class="cls-2" d="M0,20.31v9.37h76.3v-9.37H0ZM31,0v50h14.3V0h-14.3Z"/>
</svg>