<?xml version="1.0" encoding="UTF-8"?>
<svg id="Layer_1" data-name="Layer 1" xmlns="http://www.w3.org/2000/svg" viewBox="0 0 76.3 50">
  <defs>
    <style>
      .cls-1 {
        fill: #002395;
      }

      .cls-1, .cls-2, .cls-3 {
        stroke-width: 0px;
      }

      .cls-2 {
        fill: #fff;
      }

      .cls-3 {
        fill: #c8102e;
      }
    </style>
  </defs>
  <path class="cls-3" d="M76.3,5.72v38.56c0,3.16-2.56,5.72-5.72,5.72H5.71c-3.16,0-5.71-2.56-5.71-5.72V5.72C0,2.56,2.55,0,5.71,0h64.87c3.16,0,5.72,2.56,5.72,5.72Z"/>
  <path class="cls-2" d="M50.87,0v50H5.71c-3.16,0-5.71-2.56-5.71-5.72V5.72C0,2.56,2.55,0,5.71,0h45.16Z"/>
  <path class="cls-1" d="M25.43,0v50H5.71c-3.16,0-5.71-2.56-5.71-5.72V5.72C0,2.56,2.55,0,5.71,0h19.72Z"/>
</svg>