<?xml version="1.0" encoding="UTF-8"?>
<svg id="Layer_1" data-name="Layer 1" xmlns="http://www.w3.org/2000/svg" viewBox="0 0 76.32 50">
  <defs>
    <style>
      .cls-1 {
        fill: #043cae;
      }

      .cls-1, .cls-2 {
        stroke-width: 0px;
      }

      .cls-2 {
        fill: #ffd429;
      }
    </style>
  </defs>
  <path class="cls-1" d="M70.6,0H5.72C2.56,0,0,2.56,0,5.72v38.57c0,3.16,2.56,5.72,5.72,5.72h64.88c3.16,0,5.72-2.56,5.72-5.72V5.72c0-3.16-2.56-5.72-5.72-5.72Z"/>
  <g>
    <path class="cls-2" d="M38.69,5.72l.53,1.58h1.67c.22.01.31.29.13.42l-1.34.99.5,1.59c.07.21-.17.38-.34.25l-1.36-.97-1.36.97c-.18.13-.41-.04-.34-.25l.5-1.59-1.34-.99c-.17-.13-.08-.4.13-.41h1.67s.53-1.59.53-1.59c.07-.2.36-.2.43,0Z"/>
    <path class="cls-2" d="M38.69,39.69l.53,1.58h1.67c.22.01.31.29.13.42l-1.34.99.5,1.59c.07.21-.17.38-.34.25l-1.36-.97-1.36.97c-.18.13-.41-.04-.34-.25l.5-1.59-1.34-.99c-.17-.13-.08-.4.13-.41h1.67s.53-1.59.53-1.59c.07-.2.36-.2.43,0Z"/>
    <path class="cls-2" d="M55.67,22.71l.53,1.58h1.67c.22.01.31.29.13.42l-1.34.99.5,1.59c.07.21-.17.38-.34.25l-1.36-.97-1.36.97c-.18.13-.41-.04-.34-.25l.5-1.59-1.34-.99c-.17-.13-.08-.4.13-.41h1.67s.53-1.59.53-1.59c.07-.2.36-.2.43,0Z"/>
    <path class="cls-2" d="M21.71,22.71l.53,1.58h1.67c.22.01.31.29.13.42l-1.34.99.5,1.59c.07.21-.17.38-.34.25l-1.36-.97-1.36.97c-.18.13-.41-.04-.34-.25l.5-1.59-1.34-.99c-.17-.13-.08-.4.13-.41h1.67s.53-1.59.53-1.59c.07-.2.36-.2.43,0Z"/>
    <path class="cls-2" d="M24.26,13.84l.53,1.58h1.67c.22.01.31.29.13.42l-1.34.99.5,1.59c.07.21-.17.38-.34.25l-1.36-.97-1.36.97c-.18.13-.41-.04-.34-.25l.5-1.59-1.34-.99c-.17-.13-.08-.4.13-.41h1.67s.53-1.59.53-1.59c.07-.2.36-.2.43,0Z"/>
    <path class="cls-2" d="M53.67,30.82l.53,1.58h1.67c.22.01.31.29.13.42l-1.34.99.5,1.59c.07.21-.17.38-.34.25l-1.36-.97-1.36.97c-.18.13-.41-.04-.34-.25l.5-1.59-1.34-.99c-.17-.13-.08-.4.13-.41h1.67s.53-1.59.53-1.59c.07-.2.36-.2.43,0Z"/>
    <path class="cls-2" d="M47.46,7.62l.53,1.58h1.67c.22.01.31.29.13.42l-1.34.99.5,1.59c.07.21-.17.38-.34.25l-1.36-.97-1.36.97c-.18.13-.41-.04-.34-.25l.5-1.59-1.34-.99c-.17-.13-.08-.4.13-.41h1.67s.53-1.59.53-1.59c.07-.2.36-.2.43,0Z"/>
    <path class="cls-2" d="M30.48,37.04l.53,1.58h1.67c.22.01.31.29.13.42l-1.34.99.5,1.59c.07.21-.17.38-.34.25l-1.36-.97-1.36.97c-.18.13-.41-.04-.34-.25l.5-1.59-1.34-.99c-.17-.13-.08-.4.13-.41h1.67s.53-1.59.53-1.59c.07-.21.36-.21.43,0Z"/>
    <path class="cls-2" d="M53.25,13.84l-.53,1.58h-1.67c-.22.01-.31.29-.13.42l1.34.99-.5,1.59c-.07.21.17.38.34.25l1.36-.97,1.36.97c.18.13.41-.04.34-.25l-.5-1.59,1.34-.99c.17-.13.08-.4-.13-.41h-1.67s-.53-1.59-.53-1.59c-.07-.2-.36-.2-.43,0Z"/>
    <path class="cls-2" d="M23.83,30.82l-.53,1.58h-1.67c-.22.01-.31.29-.13.42l1.34.99-.5,1.59c-.07.21.17.38.34.25l1.36-.97,1.36.97c.18.13.41-.04.34-.25l-.5-1.59,1.34-.99c.17-.13.08-.4-.13-.41h-1.67s-.53-1.59-.53-1.59c-.07-.2-.36-.2-.43,0Z"/>
    <path class="cls-2" d="M30.05,7.62l-.53,1.58h-1.67c-.22.01-.31.29-.13.42l1.34.99-.5,1.59c-.07.21.17.38.34.25l1.36-.97,1.36.97c.18.13.41-.04.34-.25l-.5-1.59,1.34-.99c.17-.13.08-.4-.13-.41h-1.67s-.53-1.59-.53-1.59c-.07-.2-.36-.2-.43,0Z"/>
    <path class="cls-2" d="M47.03,37.04l-.53,1.58h-1.67c-.22.01-.31.29-.13.42l1.34.99-.5,1.59c-.07.21.17.38.34.25l1.36-.97,1.36.97c.18.13.41-.04.34-.25l-.5-1.59,1.34-.99c.17-.13.08-.4-.13-.41h-1.67s-.53-1.59-.53-1.59c-.07-.21-.36-.21-.43,0Z"/>
  </g>
</svg>