<?xml version="1.0" encoding="UTF-8"?>
<svg id="Layer_1" data-name="Layer 1" xmlns="http://www.w3.org/2000/svg" viewBox="0 0 53.65 50">
  <defs>
    <style>
      .cls-1 {
        fill: #1b294e;
        stroke-width: 0px;
      }
    </style>
  </defs>
  <path class="cls-1" d="M6.19,24.46c-1.43-1.42-2.49-2.46-3.44-3.4C3.96,10.79,12.17,2.38,22.65.45c11.66-2.16,21.37,3.53,28.27,16.73.81-.07,1.72-.16,2.69-.24,0,.55.08.93-.01,1.26-.81,2.86-1.65,5.71-2.48,8.57-2.47-2.44-4.83-4.78-7.33-7.25.84-.4,1.57-.75,2.28-1.09-1.72-8.1-11.39-14.28-19.73-13.92-10.27.44-17.62,7.41-20.16,19.96Z"/>
  <path class="cls-1" d="M2.86,32.74c-.9.15-1.62.26-2.86.46.97-3.48,1.86-6.68,2.85-10.22,2.4,2.65,4.63,5.11,6.98,7.7-.43.22-1.14.58-1.86.93,1.48,7.76,10.34,14.11,19.44,13.92,10.4-.22,18.13-7.69,20.08-19.69.76.6,1.39,1.1,2.03,1.59.69.54,1.39,1.07,1.8,1.39-1.14,9.36-8.94,19.13-20.97,20.88-11.5,1.67-20.58-3.83-27.48-16.97Z"/>
  <path class="cls-1" d="M28.65,10.33c.22.79.38,1.39.59,2.17,3.19.75,5.62,2.46,6.26,6.29h-4.8c-.34-.39-.83-1.12-1.48-1.65-1.42-1.15-3.24-1.22-4.53-.28-1.4,1.01-1.6,2.78-.23,3.83.96.74,2.2,1.15,3.35,1.61,1.39.55,2.89.88,4.23,1.53,2.73,1.31,4.23,3.54,4.13,6.61-.09,3.04-1.57,5.23-4.44,6.38-.69.28-1.39.51-2.2.81-.15.84-.29,1.66-.47,2.64-1.2.06-2.3.11-3.59.17-.26-.86-.49-1.65-.8-2.67-2.96-1.18-6.21-2.41-6.68-6.66,1.31-.97,2.84-.27,4.41-.56.55.65,1.06,1.33,1.66,1.94,1.14,1.17,2.57,1.49,4.14,1.22,1.34-.24,2.39-.89,2.67-2.29.28-1.4-.32-2.48-1.57-3.1-1-.5-2.08-.87-3.12-1.28-1.4-.55-2.88-.95-4.18-1.67-2.21-1.21-3.61-2.98-3.64-5.71-.02-2.85,1.32-4.76,3.66-6.1.75-.43,1.58-.7,2.35-1.03.23-.77.43-1.47.63-2.17h3.66Z"/>
</svg>