<svg xmlns="http://www.w3.org/2000/svg" version="1.1" style="" xml:space="preserve" width="512.1649780273438"
     height="512.1649780273438"><rect id="backgroundrect" width="100%" height="100%" x="0" y="0" fill="none" stroke="none"/>


    <g class="currentLayer" style=""><title>Layer 1</title>
        <path fill="none" stroke="#000000" stroke-opacity="1" stroke-width="18" stroke-dasharray="none"
              stroke-linejoin="miter" stroke-linecap="butt" stroke-dashoffset="" fill-rule="nonzero" opacity="1"
              marker-start="" marker-mid="" marker-end=""
              d="M20.986395835876465,257.4479633179778 C20.986395835876465,124.52485944586203 124.27228439697106,16.857145309448242 251.7857270649891,16.857145309448242 C379.29916973300715,16.857145309448242 482.5850582941017,124.52485944586203 482.5850582941017,257.4479633179778 C482.5850582941017,390.3710671900936 379.29916973300715,498.0387813265073 251.7857270649891,498.0387813265073 C124.27228439697106,498.0387813265073 20.986395835876465,390.3710671900936 20.986395835876465,257.4479633179778 z"
              id="svg_23" class=""/>
        <g id="svg_1" class="">
	<g id="svg_2">
		<g id="svg_3">
			<path d="M320.4394161398849,92.03660363887369 c-45.04977350829875,-16.0848820561093 -95.31767681035949,-0.7505595052605256 -123.71959075482606,37.74199022235758 c-28.40191394446657,38.49194686857774 -28.228900629909077,91.04859514898523 0.42620353098310226,129.35244999696758 l-16.568888329661327,16.5695807245667 c-3.515124171375485,-0.9133314461603986 -7.25209119904769,0.05968304499662025 -9.875624108295867,2.571193807177623 L86.70204517579842,362.2723884979639 c-4.01005076110268,4.03252412103426 -4.00763942570815,10.5470189112714 0.005425504637691542,14.576528737103807 l14.603649983119725,14.606671689122305 l0.005425504637691542,0.002411436161479605 c4.025724441167122,4.025892671590191 10.552606520310043,4.025892671590191 14.578330961477164,0 l83.99464863149724,-83.99815867185926 c2.6404122570098822,-2.577825256621692 3.6531731227123023,-6.3963344183246384 2.636795253918091,-9.94355701186113 l16.427825209081348,-16.42670313199903 c10.368139362628533,7.763618721883571 22.05286785067021,13.590854206099024 34.492344317199645,17.202582716955092 v3.5864084311605353 c0.006631172334956343,5.6795350193248275 4.608664772794646,10.282363792549013 10.288565294609056,10.288995241993083 h36.00907428035874 c5.679297687965776,-0.0066314494440689094 10.2819341222741,-4.6088573636278864 10.288565294609056,-10.288995241993083 v-2.4421819725384646 c46.433880024758714,-11.493507604652141 79.85197442369544,-52.056275276900486 82.24944463970645,-99.83345708525542 C394.67900743281274,151.8257518265989 365.4897924820322,108.12148569498298 320.4394161398849,92.03660363887369 zM108.59998472737009,384.1911374877327 l-0.004822670789059148,-0.004822872322959202 l-0.005425504637691542,-0.002411436161479605 l-14.608472653908786,-14.63922607730228 l84.02479032392887,-83.99815867185926 l14.608472653908786,14.636814641140798 L108.59998472737009,384.1911374877327 zM196.25202631852005,289.24083862947344 l-7.333473768613063,-7.333780226099831 l14.814641830141062,-14.81526091709029 c1.1646749955577838,1.2810754607860373 2.243144750761135,2.6145996580842557 3.4801598081548057,3.851666408923291 c1.2267668819669202,1.2268181471527466 2.512611481099815,2.3818960685014745 3.791824907897753,3.544811157375012 L196.25202631852005,289.24083862947344 zM299.7435272824861,301.8785726927477 h-36.00907428035874 v-25.72218667546252 h36.00907428035874 V301.8785726927477 zM306.5103372333848,268.4681246754478 c-1.8609480907281992,-1.6663023875824035 -4.268666482165976,-2.5916910145502 -6.7668099508986135,-2.600733900155748 h-36.00907428035874 c-1.9019407924352008,0.007234308484438817 -3.7640945508606625,0.5461902905751298 -5.37546942825505,1.557184901275451 c-35.84510347353073,-12.614222560699785 -57.21315207215454,-49.4042983583133 -50.40896642264072,-86.79120460589301 S247.71233497317564,116.34388014658805 285.70232128014044,117.16738559573332 s69.75269895755694,29.12894311259282 74.92983604961195,66.77568160657195 C365.80989725565604,221.58980569628443 342.86784947825305,257.41892418354826 306.5103372333848,268.4681246754478 zM381.762689392015,202.2850535055595 c-3.382500724676358,41.04746634070574 -32.02795954399042,75.61902086975803 -71.73059681491985,86.56995533807725 v-10.705570838888683 c40.95653167608479,-12.802314581295194 66.63966496321927,-53.355436508897625 60.70777989267653,-95.85579313689483 S329.0014652920107,107.82307046999989 286.1050142910269,106.72586701652666 c-42.89645100098384,-1.0972034534732178 -80.29023463165119,29.000534136994034 -88.38689605263285,71.14158677693078 s15.479567565182593,83.95475282095263 55.72776946912432,98.8345196553625 v10.8894428462015 c-17.897534132047124,-5.850746986789878 -33.73759633871189,-16.719692625618805 -45.636330843018065,-31.313704274893343 c-0.08620524035443258,-0.10067745974177332 -0.11875826818058162,-0.22727785821945234 -0.21400601626449986,-0.3219267275575274 l-0.0620918864091366,-0.040994414745153314 c-31.46069289242734,-39.06586867500989 -28.463402997027078,-95.55376075766951 6.9542912778232875,-131.07059826202178 c29.1078323812151,-29.13798599819837 73.30881583063943,-37.00650219310631 110.68330877815055,-19.703844875449807 C362.54555196531163,122.44300505801033 385.1451901166915,161.2369843058134 381.762689392015,202.2850535055595 z"
                  id="svg_4"/>
            <path d="M299.7435272824861,209.2788212328907 h-36.00907428035874 c-5.679297687965776,0.0066314494440689094 -10.2819341222741,4.609460222668255 -10.288565294609056,10.288995241993083 v25.72218667546252 c0.006631172334956343,5.6795350193248275 4.608664772794646,10.282363792549013 10.288565294609056,10.288995241993083 h36.00907428035874 c5.679297687965776,-0.0066314494440689094 10.2819341222741,-4.609460222668255 10.288565294609056,-10.288995241993083 v-25.72218667546252 C310.0254614047603,213.88828145555897 305.422824970452,209.28545268233478 299.7435272824861,209.2788212328907 zM299.7435272824861,245.29000315034628 h-36.00907428035874 v-25.72218667546252 h36.00907428035874 V245.29000315034628 z"
                  id="svg_5"/>
            <path d="M299.7435272824861,322.4559603176935 h-36.00907428035874 c-5.679297687965776,0.0066314494440689094 -10.2819341222741,4.609460222668255 -10.288565294609056,10.288995241993083 v25.72218667546252 c0.006631172334956343,5.6795350193248275 4.608664772794646,10.282363792549013 10.288565294609056,10.288995241993083 h36.00907428035874 c5.679297687965776,-0.0066314494440689094 10.2819341222741,-4.609460222668255 10.288565294609056,-10.288995241993083 v-25.72218667546252 C310.0254614047603,327.06481768132136 305.422824970452,322.46259176713755 299.7435272824861,322.4559603176935 zM299.7435272824861,358.4665393761087 h-36.00907428035874 v-25.72218667546252 h36.00907428035874 V358.4665393761087 z"
                  id="svg_6"/>
            <path d="M288.1540465425284,123.54985425612946 c-0.9404208038665336,-1.0592233339299142 -2.2763006124359166,-1.6825795816723907 -3.6923573228734083,-1.7235739964175438 c-1.4190708796806548,-0.05908018595625023 -2.7965462238056724,0.4877129636592499 -3.7876050709573263,1.50473616476327 l-46.297639574967796,46.29957430040831 c-1.4709145906630399,1.470976058502556 -1.911586134013319,3.6834687366600907 -1.1152426199699275,5.6059862163997005 s2.671759617138769,3.1758614246686325 4.752139228769155,3.1758614246686325 h15.432546524989265 v10.288995241993083 c0.006631172334956343,5.6795350193248275 4.608664772794646,10.282363792549013 10.288565294609056,10.288995241993083 h36.00907428035874 c5.679297687965776,-0.0066314494440689094 10.2819341222741,-4.6088573636278864 10.288565294609056,-10.288995241993083 v-10.288995241993083 h15.432546524989265 c2.025521731404841,-0.0006028590403699016 3.8629593020363755,-1.189440886649813 4.6924586777545505,-3.037806704423925 s0.4967350912730925,-4.011424054621314 -0.8493928927230425,-5.5252031049901325 L288.1540465425284,123.54985425612946 zM304.8875085128664,168.12404598299912 c-1.3642129994551053,-0.0006028590403699016 -2.6729652848360317,0.5413674182521706 -3.638102276496493,1.5065447418843796 c-0.9645341578118285,0.9645744645918399 -1.5064817877323498,2.2733814412348923 -1.5064817877323498,3.6382543086323462 v15.433191433469439 h-36.00907428035874 v-15.433191433469439 c0.0006028338486323949,-1.3642700083570838 -0.5413447960718895,-2.673076985000136 -1.5064817877323498,-3.6382543086323462 c-0.9645341578118285,-0.9645744645918399 -2.2732864431927546,-1.5065447418843796 -3.638102276496493,-1.5065447418843796 h-8.158150473542177 l33.65862510454104,-33.66003166001299 l29.920452409171574,33.66003166001299 H304.8875085128664 z"
                  id="svg_7"/>
		</g>
	</g>
</g>
        <g id="svg_8">
</g>
        <g id="svg_9">
</g>
        <g id="svg_10">
</g>
        <g id="svg_11">
</g>
        <g id="svg_12">
</g>
        <g id="svg_13">
</g>
        <g id="svg_14">
</g>
        <g id="svg_15">
</g>
        <g id="svg_16">
</g>
        <g id="svg_17">
</g>
        <g id="svg_18">
</g>
        <g id="svg_19">
</g>
        <g id="svg_20">
</g>
        <g id="svg_21">
</g>
        <g id="svg_22">
</g></g></svg>