<svg xmlns="http://www.w3.org/2000/svg" version="1.1" style="" xml:space="preserve" width="488.79998779296875"
     height="488.79998779296875"><rect id="backgroundrect" width="100%" height="100%" x="0" y="0" fill="none" stroke="none"/>


    <g class="currentLayer" style=""><title>Layer 1</title>
        <path fill="none" fill-opacity="1" stroke="#000000" stroke-opacity="1" stroke-width="18" stroke-dasharray="none"
              stroke-linejoin="miter" stroke-linecap="butt" stroke-dashoffset="" fill-rule="nonzero" opacity="1"
              marker-start="" marker-mid="" marker-end=""
              d="M9.680272102355957,244.4591827392578 C9.680272102355957,114.90117168953407 114.62226105263221,9.959182739257812 244.18027210235596,9.959182739257812 C373.7382831520797,9.959182739257812 478.68027210235596,114.90117168953407 478.68027210235596,244.4591827392578 C478.68027210235596,374.01719378898156 373.7382831520797,478.9591827392578 244.18027210235596,478.9591827392578 C114.62226105263221,478.9591827392578 9.680272102355957,374.01719378898156 9.680272102355957,244.4591827392578 z"
              id="svg_24" class=""/>
        <g id="svg_1" class="" stroke-width="10">
	<g id="svg_2" stroke-width="10">
		<path d="M398.42453429698946,191.3150198095667 c-9.544233226776123,-8.952206385135652 -23.137535095214844,-13.89783089160919 -38.249237704277036,-13.89783089160919 h-36.369312977790834 v-17.027972984313966 c0,-4.1317875623703 -3.904459047317505,-7.512341022491455 -8.676575660705566,-7.512341022491455 H141.88711392879486 c-4.772116613388062,0 -8.676575660705566,3.380553460121155 -8.676575660705566,7.512341022491455 v26.1679878950119 H99.44419798851013 c-4.772116613388062,0 -8.676575660705566,3.380553460121155 -8.676575660705566,7.512341022491455 s3.904459047317505,7.512341022491455 8.676575660705566,7.512341022491455 h42.22600154876709 c0.07230479717254638,0 0.14460959434509282,0 0.21691439151763936,0 c0,0 0,0 0.07230479717254638,0 c4.772116613388062,0 8.676575660705566,-3.380553460121155 8.676575660705566,-7.512341022491455 v-26.1679878950119 h155.88914270401 v17.027972984313966 v100.7279725432396 h-81.70442080497742 c-0.36152398586273216,0 -0.7230479717254639,0 -1.0845719575881958,0.0626028418540955 c-4.338287830352783,-9.265220594406129 -14.82248342037201,-15.838518989086152 -27.04199414253235,-15.838518989086152 c-12.291815519332886,0 -22.776011109352112,6.635901236534118 -27.04199414253235,15.963724672794342 c-0.6507431745529176,-0.12520568370819093 -1.2291815519332887,-0.18780852556228644 -1.8799247264862062,-0.18780852556228644 h-17.136236929893492 v-26.230590736865995 c0,-4.1317875623703 -3.904459047317505,-7.512341022491455 -8.676575660705566,-7.512341022491455 c-0.14460959434509282,0 -0.28921918869018554,0 -0.4338287830352787,0 s-0.21691439151763936,0 -0.36152398586273216,0 H99.44419798851013 c-4.772116613388062,0 -8.676575660705566,3.380553460121155 -8.676575660705566,7.512341022491455 s3.904459047317505,7.512341022491455 8.676575660705566,7.512341022491455 h33.76634027957916 v26.1679878950119 c0,4.1317875623703 3.904459047317505,7.512341022491455 8.676575660705566,7.512341022491455 h25.812812590599062 c0.21691439151763936,0 0.36152398586273216,0 0.5784383773803713,0 c2.8921918869018555,11.268511533737183 14.533264231681825,19.657292342185972 28.415785288810728,19.657292342185972 s25.45128860473633,-8.388780808448791 28.415785288810728,-19.657292342185972 h90.0917772769928 h13.882521057128907 c2.9644966840744016,11.205908691883087 14.533264231681825,19.657292342185972 28.415785288810728,19.657292342185972 s25.45128860473633,-8.388780808448791 28.415785288810728,-19.657292342185972 h19.377685642242433 c4.772116613388062,0 8.676575660705566,-3.380553460121155 8.676575660705566,-7.512341022491455 V230.69220733579277 C413.97006568908694,214.47807129558205 408.54720590114596,200.83065177138923 398.42453429698946,191.3150198095667 zM196.69415018558502,305.3147948258745 c-6.507431745529175,0 -11.78568193912506,-4.570007455348969 -11.78568193912506,-10.20426322221756 s5.278250193595886,-10.20426322221756 11.78568193912506,-10.20426322221756 s11.78568193912506,4.570007455348969 11.78568193912506,10.20426322221756 C208.47983212471007,300.7447873705256 203.2015819311142,305.3147948258745 196.69415018558502,305.3147948258745 zM357.50001909732816,305.3147948258745 c-6.507431745529175,0 -11.78568193912506,-4.570007455348969 -11.78568193912506,-10.20426322221756 s5.278250193595886,-10.20426322221756 11.78568193912506,-10.20426322221756 s11.78568193912506,4.570007455348969 11.78568193912506,10.20426322221756 C369.2133962392807,300.7447873705256 363.9351460456848,305.3147948258745 357.50001909732816,305.3147948258745 zM396.6169143676758,285.65750248368863 H384.469708442688 c-4.338287830352783,-9.202617752552031 -14.82248342037201,-15.775916147232055 -26.9696893453598,-15.775916147232055 s-22.63140151500702,6.510695552825928 -26.9696893453598,15.775916147232055 h-6.652041339874267 V192.44187096294047 h36.369312977790834 c22.776011109352112,0 36.369312977790834,14.33605078458786 36.369312977790834,38.312939214706425 V285.65750248368863 z"
              id="svg_3" stroke-width="10"/>
        <path d="M209.56440408229827,240.83386771615622 c-3.39832546710968,2.942333567142487 -3.39832546710968,7.7001495480537425 0,10.642483115196228 c1.663010334968567,1.4398653626441955 3.904459047317505,2.191099464893341 6.145907759666443,2.191099464893341 s4.41059262752533,-0.7512341022491457 6.145907759666443,-2.191099464893341 l22.342182326316834,-19.344278132915495 l0.07230479717254638,-0.0626028418540955 c0.14460959434509282,-0.18780852556228644 0.36152398586273216,-0.3130142092704775 0.5061335802078244,-0.5008227348327634 c0.07230479717254638,-0.12520568370819093 0.14460959434509282,-0.18780852556228644 0.21691439151763936,-0.3130142092704775 c0.07230479717254638,-0.12520568370819093 0.14460959434509282,-0.18780852556228644 0.28921918869018554,-0.3130142092704775 c0.07230479717254638,-0.12520568370819093 0.14460959434509282,-0.25041136741638176 0.21691439151763936,-0.37561705112457294 c0.07230479717254638,-0.12520568370819093 0.14460959434509282,-0.18780852556228644 0.21691439151763936,-0.3130142092704775 c0.07230479717254638,-0.12520568370819093 0.14460959434509282,-0.25041136741638176 0.21691439151763936,-0.37561705112457294 c0.07230479717254638,-0.12520568370819093 0.14460959434509282,-0.18780852556228644 0.14460959434509282,-0.3130142092704775 c0.07230479717254638,-0.12520568370819093 0.07230479717254638,-0.25041136741638176 0.14460959434509282,-0.37561705112457294 c0.07230479717254638,-0.12520568370819093 0.07230479717254638,-0.25041136741638176 0.14460959434509282,-0.3130142092704775 c0.07230479717254638,-0.12520568370819093 0.07230479717254638,-0.25041136741638176 0.07230479717254638,-0.37561705112457294 c0,-0.12520568370819093 0.07230479717254638,-0.25041136741638176 0.07230479717254638,-0.37561705112457294 c0,-0.12520568370819093 0.07230479717254638,-0.25041136741638176 0.07230479717254638,-0.4382198929786684 c0,-0.12520568370819093 0.07230479717254638,-0.18780852556228644 0.07230479717254638,-0.3130142092704775 c0.07230479717254638,-0.5008227348327634 0.07230479717254638,-1.0016454696655275 0,-1.5024682044982909 c0,-0.12520568370819093 0,-0.18780852556228644 -0.07230479717254638,-0.3130142092704775 c0,-0.12520568370819093 -0.07230479717254638,-0.25041136741638176 -0.07230479717254638,-0.4382198929786684 c0,-0.12520568370819093 -0.07230479717254638,-0.25041136741638176 -0.07230479717254638,-0.37561705112457294 c0,-0.12520568370819093 -0.07230479717254638,-0.25041136741638176 -0.07230479717254638,-0.37561705112457294 c-0.07230479717254638,-0.12520568370819093 -0.07230479717254638,-0.25041136741638176 -0.14460959434509282,-0.3130142092704775 c-0.07230479717254638,-0.12520568370819093 -0.07230479717254638,-0.25041136741638176 -0.14460959434509282,-0.37561705112457294 c-0.07230479717254638,-0.12520568370819093 -0.14460959434509282,-0.18780852556228644 -0.14460959434509282,-0.3130142092704775 c-0.07230479717254638,-0.12520568370819093 -0.14460959434509282,-0.25041136741638176 -0.21691439151763936,-0.37561705112457294 c-0.07230479717254638,-0.12520568370819093 -0.14460959434509282,-0.18780852556228644 -0.21691439151763936,-0.3130142092704775 c-0.07230479717254638,-0.12520568370819093 -0.14460959434509282,-0.25041136741638176 -0.21691439151763936,-0.37561705112457294 c-0.07230479717254638,-0.12520568370819093 -0.14460959434509282,-0.18780852556228644 -0.28921918869018554,-0.3130142092704775 c-0.07230479717254638,-0.12520568370819093 -0.14460959434509282,-0.18780852556228644 -0.21691439151763936,-0.3130142092704775 c-0.14460959434509282,-0.18780852556228644 -0.36152398586273216,-0.3130142092704775 -0.5061335802078244,-0.5008227348327634 l-0.07230479717254638,-0.0626028418540955 l-21.25761036872864,-18.405235505104063 c-3.39832546710968,-2.942333567142487 -8.893490052223205,-2.942333567142487 -12.291815519332886,0 s-3.39832546710968,7.7001495480537425 0,10.642483115196228 l6.435126948356628,5.571652925014496 H69.22079277038574 c-4.772116613388062,0 -8.676575660705566,3.380553460121155 -8.676575660705566,7.512341022491455 s3.904459047317505,7.512341022491455 8.676575660705566,7.512341022491455 h147.79100542068483 L209.56440408229827,240.83386771615622 z"
              id="svg_4" stroke-width="10"/>
	</g>
</g>
        <g id="svg_5">
</g>
        <g id="svg_6">
</g>
        <g id="svg_7">
</g>
        <g id="svg_8">
</g>
        <g id="svg_9">
</g>
        <g id="svg_10">
</g>
        <g id="svg_11">
</g>
        <g id="svg_12">
</g>
        <g id="svg_13">
</g>
        <g id="svg_14">
</g>
        <g id="svg_15">
</g>
        <g id="svg_16">
</g>
        <g id="svg_17">
</g>
        <g id="svg_18">
</g>
        <g id="svg_19">
</g>
        <path fill="none" fill-opacity="1" stroke="none" stroke-opacity="1" stroke-width="10" stroke-dasharray="none"
              stroke-linejoin="miter" stroke-linecap="butt" stroke-dashoffset="" fill-rule="nonzero" opacity="1"
              marker-start="" marker-mid="" marker-end=""
              d="M79,161 C79,121.77348066298342 103.1657458563536,90 133,90 C162.8342541436464,90 187,121.77348066298342 187,161 C187,200.22651933701658 162.8342541436464,232 133,232 C103.1657458563536,232 79,200.22651933701658 79,161 Z"
              id="svg_20"/>
        <path fill="none" fill-opacity="1" stroke="none" stroke-opacity="1" stroke-width="10" stroke-dasharray="none"
              stroke-linejoin="miter" stroke-linecap="butt" stroke-dashoffset="" fill-rule="nonzero" opacity="1"
              marker-start="" marker-mid="" marker-end=""
              d="M117,115.5 C117,115.22375690607734 117,115 117,115 C117,115 117,115.22375690607734 117,115.5 C117,115.77624309392266 117,116 117,116 C117,116 117,115.77624309392266 117,115.5 Z"
              id="svg_22"/></g></svg>